<svg width="89" height="31" viewBox="0 0 89 31" fill="none" xmlns="http://www.w3.org/2000/svg">
<path d="M2.02122 28.3065C1.40509 27.6723 0.907672 26.954 0.54851 26.114C0.189349 25.2754 0 24.4023 0 23.4766C0 22.5344 0.187846 21.6447 0.54851 20.8047C0.907672 19.9827 1.40509 19.2628 2.02122 18.6467C2.65539 18.0125 3.37371 17.5332 4.21376 17.174C5.03578 16.8148 5.92692 16.6255 6.86765 16.6255C7.80989 16.6255 8.69952 16.7968 9.52154 17.156C10.3436 17.5151 11.0799 18.0125 11.7141 18.6452L10.0866 20.2381C9.17891 19.347 8.09992 18.9202 6.86765 18.9202C6.23348 18.9202 5.63538 19.0404 5.08687 19.2628C4.52183 19.5033 4.04245 19.8279 3.63069 20.2562C3.22043 20.6679 2.89433 21.1473 2.65539 21.6943C2.41495 22.2594 2.29623 22.8424 2.29623 23.4751C2.29623 24.1093 2.41645 24.6908 2.65539 25.2559C2.89433 25.8044 3.22043 26.2838 3.64872 26.694C4.05898 27.1223 4.53986 27.4469 5.08687 27.6874C5.65191 27.9098 6.23498 28.03 6.86765 28.03L9.52154 29.7942C8.69952 30.1534 7.80838 30.3247 6.86765 30.3247C5.92541 30.3247 5.03578 30.1369 4.21376 29.7762C3.37371 29.4186 2.65539 28.9226 2.02122 28.3065Z" fill="#313131"/>
<path d="M27.0819 28.0315L24.8037 30.3262V16.627L27.0819 18.8871V28.0315Z" fill="#313131"/>
<path d="M23.5447 20.6168C23.5447 20.0683 23.4425 19.5543 23.2366 19.075C23.0307 18.579 22.7407 18.1673 22.38 17.8081C22.0209 17.4309 21.5926 17.1574 21.0952 16.935C20.5993 16.7291 20.0853 16.627 19.5533 16.627H12.1387L12.1973 16.6856V30.3262L14.4154 28.0901V30.3262H19.5533C20.1018 30.3262 20.6158 30.224 21.0952 30.0181C21.5911 29.7957 22.0194 29.5222 22.38 29.145C22.7392 28.7858 23.0307 28.3741 23.2366 27.8782C23.4425 27.3988 23.5447 26.8848 23.5447 26.3363C23.5447 25.2063 23.151 24.2475 22.3455 23.4766C23.151 22.6891 23.5447 21.7304 23.5447 20.6168ZM21.1312 26.987C21.0456 27.1929 20.9254 27.3808 20.7721 27.5355C20.6173 27.7069 20.4294 27.8271 20.207 27.9127C20.0012 27.9984 19.7787 28.033 19.5563 28.033H14.4785V24.6247H19.5563C19.7968 24.6247 20.0192 24.6758 20.2416 24.7614C20.4475 24.8471 20.6188 24.9838 20.7721 25.1386C20.9254 25.2934 21.0456 25.4813 21.1312 25.6871C21.2169 25.893 21.268 26.1154 21.268 26.3378C21.268 26.5587 21.2169 26.7812 21.1312 26.987ZM21.1312 21.284C21.0456 21.4899 20.9254 21.6778 20.7721 21.8325C20.6173 22.0039 20.4294 22.1241 20.207 22.2097C20.0012 22.3119 19.7787 22.3465 19.5563 22.3465H14.4785V18.9217H19.5563C19.7787 18.9217 20.0012 18.9562 20.207 19.0419C20.4294 19.1276 20.6173 19.2478 20.7721 19.4191C20.9269 19.5739 21.0456 19.7617 21.1312 19.9676C21.2169 20.1735 21.268 20.3959 21.268 20.6183C21.268 20.8572 21.2169 21.0797 21.1312 21.284Z" fill="#313131"/>
<path d="M32.6724 16.627V16.63H26.9424L29.2371 18.9082H32.6724V18.9217V30.3262H34.9672V18.9217H39.5221V16.627H32.6724Z" fill="#313131"/>
<path d="M45.8025 28.3065C45.1863 27.6723 44.6889 26.954 44.3298 26.114C43.9706 25.2754 43.7812 24.4023 43.7812 23.4766C43.7812 22.5344 43.9691 21.6447 44.3298 20.8047C44.6889 19.9827 45.1863 19.2628 45.8025 18.6467C46.4366 18.0125 47.155 17.5332 47.995 17.174C48.817 16.8148 49.7082 16.6255 50.6489 16.6255C51.5911 16.6255 52.4808 16.7968 53.3028 17.156C54.1248 17.5151 54.8612 18.0125 55.4953 18.6452L53.8678 20.2381C52.9602 19.347 51.8812 18.9202 50.6489 18.9202C50.0147 18.9202 49.4166 19.0404 48.8681 19.2628C48.3031 19.5033 47.8237 19.8279 47.4119 20.2562C47.0017 20.6679 46.6756 21.1473 46.4366 21.6943C46.1962 22.2594 46.0775 22.8424 46.0775 23.4751C46.0775 24.1093 46.1977 24.6908 46.4366 25.2559C46.6756 25.8044 47.0017 26.2838 47.43 26.694C47.8402 27.1223 48.3211 27.4469 48.8681 27.6874C49.4332 27.9098 50.0162 28.03 50.6489 28.03L53.3028 29.7942C52.4808 30.1534 51.5896 30.3247 50.6489 30.3247C49.7067 30.3247 48.817 30.1369 47.995 29.7762C47.155 29.4186 46.4366 28.9226 45.8025 28.3065Z" fill="#313131"/>
<path d="M58.1149 28.031L56.9502 30.3257H54.415L61.2647 16.6265L65.8376 25.7708H63.2693L61.2662 21.7464L59.2449 25.7708L58.1149 28.031Z" fill="#313131"/>
<path d="M88.0429 16.627V30.3262H85.7647V24.6232H78.9151V30.3262H76.6369L76.6309 24.9012L78.7708 22.2849L85.7632 22.3285V16.6255H88.0429V16.627Z" fill="#313131"/>
<path d="M82.0075 6.40329C81.0848 7.58297 81.1164 8.36741 81.9669 9.26757C82.1623 9.47345 82.3426 9.71239 82.4598 9.96936C82.7213 10.5419 82.5335 10.9131 81.9249 11.1505C81.3643 11.3684 80.93 11.2723 80.7016 10.6697C80.6114 10.4307 80.5528 10.1782 80.4762 9.92127C78.5887 10.9101 78.4955 12.4805 80.1516 14.4626C77.8929 14.0223 76.3812 11.5082 76.9537 9.11729C77.3489 7.46124 78.1634 6.03512 79.4107 4.87197C80.0269 4.29792 80.6731 3.75542 81.3012 3.19488C82.2465 2.35183 82.8581 1.37052 82.5425 0C83.889 0.843053 84.3774 2.02122 84.0197 3.45637C83.9205 3.85159 83.8168 4.24682 83.7462 4.64806C83.5959 5.50764 83.8619 5.90287 84.6599 6.04413C85.255 6.14933 85.6622 5.81271 85.8396 5.06282C85.8666 4.95012 85.8832 4.8344 85.9327 4.57292C87.5888 6.06517 88.9954 7.58447 88.9999 9.86868C89.0044 12.24 87.2507 13.283 85.4023 14.2102C85.6773 13.8736 85.9778 13.555 86.2243 13.1988C87.0688 11.9741 86.9621 10.8124 85.8125 9.87619C85.1303 9.32017 84.3353 8.89488 83.5599 8.4681C82.7739 8.0338 82.0451 7.58898 82.0075 6.40329Z" fill="#313131"/>
<path d="M67.8771 30.326H65.3254L64.1953 28.0493H66.7305L67.8771 30.326Z" fill="#313131"/>
<path d="M74.8224 25.343V25.3264L70.9348 30.3276H68.0059L73.3828 23.478L68.0059 16.6284H70.9348L74.8224 21.6281L78.7266 16.6284H81.6209L76.2786 23.478L74.8224 25.343ZM74.8224 25.343L70.9348 30.3261L74.8224 25.3249V25.343Z" fill="#313131"/>
</svg>
