<svg width="77" height="38" viewBox="0 0 77 38" fill="none" xmlns="http://www.w3.org/2000/svg">
<path fill-rule="evenodd" clip-rule="evenodd" d="M39.9982 1.14572C54.6411 -2.68673 67.3456 3.67439 67.1461 11.6512C63.889 8.43022 61.4665 7.2337 56.2356 6.02933C62.0443 8.33925 63.588 9.87235 65.8625 12.6733C60.1161 12.122 54.9672 8.81179 50.4058 5.87918C46.5102 3.37474 43.0431 1.14572 39.9982 1.14572ZM63.027 23.1717C63.3039 22.0937 63.596 21.1093 63.9186 20.1939L63.9364 20.1979L63.932 20.1781L63.9291 20.1642C65.4781 15.7847 67.729 12.9892 72.3446 9.08578C66.0986 13.0674 63.3603 15.9248 61.1793 21.0217C59.9963 20.8016 58.8199 20.6915 57.6497 20.6915C55.75 20.6915 54.1754 21.3578 52.9261 22.6904C51.6938 24.0078 51.0777 25.5448 51.0777 27.3014C51.0777 28.5886 51.4286 29.6789 52.1303 30.5723C52.832 31.4658 53.8246 31.9125 55.1082 31.9125C55.6216 31.9125 56.1094 31.8065 56.5715 31.5945C57.4786 31.1706 58.5396 30.0196 59.7548 28.1419C59.7719 28.5508 59.8147 29.2473 59.8831 30.2316C59.9687 31.216 60.0115 31.9655 60.0115 32.4804C60.0115 33.5253 59.7035 34.3807 59.0873 35.0471C58.4712 35.7135 57.6154 36.0465 56.5201 36.0465C55.8869 36.0465 55.3393 35.8497 54.8772 35.456C54.4151 35.0622 54.184 34.5928 54.184 34.0477C54.184 33.8963 54.2097 33.722 54.2611 33.5252C54.0557 33.4949 53.8846 33.4798 53.7476 33.4798C53.1144 33.4798 52.5667 33.6691 52.1046 34.0477C51.6425 34.4262 51.4115 34.8881 51.4115 35.4332C51.4115 36.3115 51.8479 36.9551 52.7207 37.364C53.6107 37.7879 54.6718 38 55.904 38C57.992 38 59.7035 37.3867 61.0384 36.1601C62.3733 34.9486 63.0407 33.4116 63.0407 31.5491C63.0407 31.019 62.9808 30.2089 62.8611 29.1186C62.7413 28.0132 62.6813 27.0895 62.6813 26.3475C62.6813 25.3025 62.7966 24.2439 63.027 23.1717ZM19.2794 28.0056L19.5362 23.1447C19.5362 21.5093 18.672 20.6915 16.9433 20.6915C15.9507 20.6915 14.9495 21.0928 13.9397 21.8954C12.9471 22.698 12.1343 23.6293 11.5009 24.6893C11.5523 24.1895 11.578 23.7353 11.578 23.3264C11.578 21.691 10.7137 20.8732 8.98506 20.8732C8.00957 20.8732 7.03405 21.2443 6.05853 21.9863C5.08301 22.7131 4.27871 23.5763 3.64539 24.5757C3.76527 23.5158 3.82509 22.8495 3.82509 22.5768C3.82509 22.0468 3.62832 21.6229 3.23464 21.3048C2.85816 20.9868 2.3618 20.8278 1.74568 20.8278C1.12955 20.8278 0.547706 20.9187 0 21.1004C0.393676 22.5844 0.590449 23.9019 0.590449 25.0527C0.590449 26.1885 0.513434 27.3392 0.359403 28.5053C0.205373 29.6561 0.128358 30.4588 0.128358 30.9131C0.128358 31.3523 0.30806 31.7004 0.667464 31.9579C1.04407 32.2002 1.52323 32.3213 2.10508 32.3213C2.70413 32.3213 3.27751 32.2305 3.82509 32.0488C3.56837 31.0039 3.39726 29.8304 3.31165 28.528C3.34592 28.0283 3.59404 27.362 4.05613 26.5292C4.53542 25.6811 5.11727 24.9088 5.80181 24.2123C6.48647 23.5158 7.09399 23.1674 7.6245 23.1674C8.39462 23.1674 8.77975 23.546 8.77975 24.3032C8.77975 24.6666 8.68561 25.56 8.49732 26.9834C8.30919 28.4069 8.21496 29.4215 8.21496 30.0272C8.21496 31.4658 8.94238 32.1851 10.3971 32.1851C10.8421 32.1851 11.3897 32.0942 12.04 31.9125C11.6465 30.7314 11.4068 29.5426 11.3213 28.3463C11.3213 27.5589 11.8518 26.4686 12.9128 25.0754C13.9911 23.6823 14.9153 22.9857 15.6854 22.9857C16.3872 22.9857 16.7379 23.3642 16.7379 24.1215C16.7379 24.5152 16.6439 25.4843 16.4556 27.0289C16.2674 28.5584 16.1731 29.6487 16.1731 30.2998C16.1731 31.7384 16.9006 32.4576 18.3553 32.4576C18.9714 32.4576 19.5191 32.3668 19.9983 32.1851C19.5191 30.8676 19.2794 29.4744 19.2794 28.0056ZM33.6503 26.8699C33.6503 25.1133 33.8813 23.3642 34.3434 21.6229C32.2896 21.0019 30.2873 20.6915 28.3362 20.6915C26.4023 20.6915 24.8278 21.426 23.6126 22.8949C22.3976 24.3486 21.7899 26.0446 21.7899 27.9829C21.7899 29.2549 22.1493 30.3225 22.8681 31.1856C23.5869 32.0337 24.5967 32.4576 25.8974 32.4576C26.4451 32.4576 26.9756 32.3213 27.489 32.0488C28.6186 31.4431 29.791 29.9894 31.0061 27.6876C30.7836 28.8082 30.6723 29.6941 30.6723 30.3452C30.6723 30.9812 30.8007 31.4733 31.0574 31.8217C31.3141 32.1548 31.7677 32.3213 32.418 32.3213C33.0684 32.3213 33.7016 32.2305 34.3177 32.0488C33.8728 30.3376 33.6503 28.6113 33.6503 26.8699ZM28.67 22.6222C29.3032 22.6222 30.0734 22.7434 30.9804 22.9857C30.4328 24.8332 29.6884 26.5368 28.7469 28.0965C27.8057 29.6561 27.0355 30.436 26.4365 30.436C25.9231 30.436 25.538 30.0803 25.2812 29.3685C25.0417 28.6567 24.9218 27.9525 24.9218 27.256C24.9218 25.9386 25.2128 24.6439 25.7947 23.3719C26.428 22.8721 27.3864 22.6222 28.67 22.6222ZM48.3069 28.1419L48.5636 23.1447C48.5636 21.5093 47.6992 20.6915 45.9707 20.6915C44.9267 20.6915 43.8827 21.1004 42.8388 21.9181C41.7947 22.7208 40.9476 23.6595 40.2973 24.7347C40.4341 23.7049 40.5026 22.9554 40.5026 22.486C40.5026 22.0166 40.3057 21.6229 39.9122 21.3048C39.5356 20.9868 39.0394 20.8278 38.4232 20.8278C37.8071 20.8278 37.2252 20.9187 36.6776 21.1004C37.0711 22.5844 37.268 23.9019 37.268 25.0527C37.268 26.1885 37.191 27.3392 37.037 28.5053C36.8829 29.6561 36.8059 30.4588 36.8059 30.9131C36.8059 31.3523 36.9856 31.7004 37.345 31.9579C37.7215 32.2002 38.2007 32.3213 38.7826 32.3213C39.3815 32.3213 39.955 32.2305 40.5026 32.0488C40.2288 30.9736 40.0577 29.8455 39.9892 28.6643C40.0747 28.0889 40.3657 27.362 40.862 26.4838C41.3755 25.5902 41.983 24.7878 42.6848 24.076C43.4035 23.3491 44.0454 22.9857 44.6102 22.9857C45.3803 22.9857 45.7654 23.3642 45.7654 24.1215C45.7654 24.5152 45.6712 25.4843 45.483 27.0289C45.2947 28.5584 45.2006 29.6487 45.2006 30.2998C45.2006 31.7384 45.9279 32.4576 47.3827 32.4576C47.9988 32.4576 48.5463 32.3668 49.0257 32.1851C48.5463 30.8676 48.3069 29.5198 48.3069 28.1419ZM57.6754 22.6222C58.5654 22.6222 59.464 22.7434 60.3709 22.9857C59.7719 24.6515 58.9846 26.2188 58.0091 27.6876C57.0336 29.1564 56.255 29.8909 55.673 29.8909C55.1595 29.8909 54.7916 29.5578 54.5691 28.8915C54.3467 28.21 54.2353 27.5135 54.2353 26.8017C54.2353 25.5752 54.5434 24.4167 55.1595 23.3264C55.9468 22.8571 56.7855 22.6222 57.6754 22.6222ZM66.3206 31.1402C67.2105 32.1093 68.5967 32.5939 70.4794 32.5939C72.3619 32.5939 73.9194 31.9806 75.1516 30.754C76.3839 29.5124 77 28.0056 77 26.2339C77 22.4481 75.1003 20.5552 71.3009 20.5552C69.4525 20.5552 67.9379 21.1989 66.757 22.486C65.5761 23.7731 64.9857 25.295 64.9857 27.0516C64.9857 28.793 65.4305 30.1559 66.3206 31.1402ZM68.1689 25.6887C68.1689 24.8104 68.3229 23.9321 68.631 23.0538C69.3669 22.6753 70.2312 22.486 71.2238 22.486C72.9523 22.486 73.8167 24.0987 73.8167 27.3242C73.8167 28.4599 73.6284 29.3003 73.252 29.8455C72.8926 30.3906 72.1308 30.6632 70.9671 30.6632C69.8204 30.6632 69.0503 30.1711 68.6567 29.1868C68.4684 28.7022 68.34 28.2176 68.2716 27.733C68.2031 27.2484 68.1689 26.567 68.1689 25.6887ZM65.1814 18.9722C68.3191 21.2773 74.3191 19.0691 76.9013 13.4015C76.0447 14.3565 74.2013 14.8196 72.1294 15.3403C69.7053 15.9492 66.9684 16.6368 65.1329 18.2824C66.894 18.3568 67.9417 18.304 70.4998 17.1327C68.5469 18.4337 67.3868 18.8566 65.1814 18.9722Z" fill="#313131"/>
</svg>
