<svg width="9" height="10" viewBox="0 0 9 10" fill="none" xmlns="http://www.w3.org/2000/svg">
<path d="M3.82806 4.42747C3.14558 5.24314 3.16893 5.78554 3.79805 6.40794C3.94255 6.55029 4.07593 6.7155 4.16263 6.89318C4.35604 7.28907 4.2171 7.54572 3.76693 7.70989C3.35233 7.86056 3.0311 7.79406 2.86214 7.37739C2.79545 7.21218 2.7521 7.03761 2.69541 6.85993C1.29934 7.54364 1.23043 8.62947 2.45533 10C0.784704 9.69555 -0.333495 7.95719 0.0899968 6.30403C0.382328 5.15898 0.984779 4.1729 1.90735 3.36866C2.36307 2.97174 2.84103 2.59663 3.30565 2.20906C4.0048 1.62614 4.45718 0.947631 4.22376 0C5.21969 0.582918 5.58094 1.39755 5.31639 2.38986C5.24303 2.66313 5.16634 2.93641 5.1141 3.21384C5.00294 3.80819 5.19969 4.08146 5.78991 4.17914C6.23007 4.25187 6.53129 4.01912 6.66245 3.50062C6.68246 3.42269 6.69468 3.34268 6.73137 3.16189C7.95627 4.19368 8.99666 5.24418 8.99999 6.82357C9.00333 8.46322 7.70618 9.18433 6.339 9.82544C6.54241 9.59269 6.76471 9.3724 6.947 9.12614C7.57168 8.2793 7.49276 7.4761 6.64244 6.82876C6.13781 6.44431 5.54982 6.15025 4.97627 5.85515C4.39494 5.55486 3.85585 5.2473 3.82806 4.42747Z" fill="url(#paint0_linear)"/>
<defs>
<linearGradient id="paint0_linear" x1="-0.000748024" y1="4.99947" x2="8.99888" y2="4.99947" gradientUnits="userSpaceOnUse">
<stop stop-color="#FFB900"/>
<stop offset="1" stop-color="#ED6924"/>
</linearGradient>
</defs>
</svg>
