<svg width="34" height="36" viewBox="0 0 34 36" fill="none" xmlns="http://www.w3.org/2000/svg">
<path d="M33.5603 23.8971L31.7218 23.4265C31.5681 22.907 31.364 22.4042 31.1126 21.9263L32.0883 20.2623C32.2268 20.0261 32.1905 19.7238 32.0004 19.5289L30.1705 17.6537C29.9801 17.4588 29.6847 17.4219 29.454 17.5637L27.8282 18.5623C27.6172 18.4465 27.4002 18.3396 27.1792 18.2423C26.9113 18.126 26.6373 18.0246 26.3585 17.9388L25.8987 16.0568C25.8337 15.7896 25.5993 15.602 25.3302 15.602H22.744C22.4749 15.602 22.2404 15.7896 22.1751 16.0568L21.7157 17.9388C21.2078 18.0961 20.7168 18.305 20.2499 18.5623L18.6242 17.5637C18.3934 17.4219 18.098 17.4588 17.9076 17.6537L16.0755 19.5266C15.8851 19.7214 15.849 20.0238 15.9876 20.26L16.9632 21.9239C16.7116 22.4018 16.5078 22.9044 16.354 23.4241L14.5153 23.8944C14.2542 23.9612 14.071 24.2012 14.071 24.4766V27.1254C14.071 27.4008 14.2542 27.6408 14.5153 27.7073L16.354 28.1779C16.5078 28.6974 16.7116 29.1999 16.9632 29.6781L15.9876 31.3421C15.849 31.5782 15.8851 31.8806 16.0755 32.0755L17.9053 33.9484C18.0957 34.1429 18.3912 34.1801 18.6216 34.0383L20.2474 33.0398C20.7146 33.297 21.2055 33.5059 21.7131 33.6633L22.1728 35.545C22.2381 35.8122 22.4726 35.9997 22.7417 36H25.3296C25.5987 35.9997 25.8332 35.8122 25.8981 35.545L26.3579 33.6633C26.8655 33.5059 27.3564 33.297 27.8236 33.0398L29.4494 34.0383C29.6801 34.1801 29.9755 34.1429 30.1659 33.9484L31.9955 32.0755C32.1859 31.8806 32.2222 31.5782 32.0837 31.3421L31.1081 29.6781C31.3594 29.1999 31.5635 28.6974 31.7172 28.1779L33.5557 27.7073C33.8168 27.6408 34 27.4008 34 27.1254V24.479C34.0006 24.205 33.8196 23.9653 33.5603 23.8971ZM32.8323 26.6589L31.1069 27.1008C30.8971 27.1541 30.7333 27.3208 30.6801 27.5353C30.5186 28.1855 30.2664 28.8084 29.9306 29.3845C29.8201 29.5744 29.8201 29.8108 29.9306 30.0004L30.8464 31.5607L29.6664 32.7734L28.142 31.8361C27.9567 31.7227 27.7257 31.7227 27.5405 31.8361C26.9774 32.1795 26.3688 32.4379 25.7335 32.6029C25.524 32.6574 25.3611 32.8253 25.309 33.0398L24.8738 34.8045H23.2017L22.7703 33.0386C22.7182 32.8241 22.555 32.6562 22.3458 32.6017C21.7105 32.4365 21.1019 32.1783 20.5388 31.8346C20.3536 31.7215 20.1225 31.7215 19.9373 31.8346L18.4129 32.7719L17.228 31.5642L18.1438 30.0039C18.2546 29.8143 18.2546 29.5779 18.1438 29.3883C17.8083 28.812 17.5558 28.189 17.3946 27.5388C17.3414 27.3247 17.1773 27.1576 16.9678 27.1043L15.2436 26.6589V24.9478L16.9689 24.5059C17.1785 24.4526 17.3425 24.2859 17.3958 24.0714C17.5569 23.4212 17.8094 22.7983 18.145 22.2222C18.2557 22.0324 18.2557 21.7959 18.145 21.6063L17.2292 20.0461L18.4095 18.8333L19.9339 19.7706C20.1191 19.884 20.3501 19.884 20.5354 19.7706C21.0985 19.4272 21.7071 19.1688 22.3423 19.0038C22.5516 18.9493 22.7148 18.7815 22.7669 18.567L23.2017 16.8022H24.8738L25.3055 18.5681C25.3576 18.7826 25.5205 18.9505 25.7298 19.005C26.3651 19.1697 26.9737 19.4278 27.5362 19.7715C27.7217 19.8849 27.953 19.8849 28.1385 19.7715L29.6626 18.8342L30.8475 20.0426L29.9317 21.6028C29.8212 21.7924 29.8212 22.0288 29.9317 22.2184C30.2675 22.7948 30.5198 23.4177 30.6812 24.0679C30.7345 24.2821 30.8982 24.4491 31.1081 24.5024L32.8323 24.9478V26.6589Z" fill="#F4C51F"/>
<path d="M24.0379 21.0027C21.4474 21.0027 19.3476 23.1519 19.3476 25.8034C19.3476 28.4548 21.4474 30.604 24.0379 30.604C26.6281 30.604 28.7282 28.4548 28.7282 25.8034C28.7254 23.1534 26.627 21.0057 24.0379 21.0027ZM24.0379 29.4038C22.095 29.4038 20.5202 27.7917 20.5202 25.8034C20.5202 23.815 22.095 22.2029 24.0379 22.2029C25.9806 22.2029 27.5557 23.815 27.5557 25.8034C27.5537 27.7911 25.9797 29.4018 24.0379 29.4038Z" fill="#F4C51F"/>
<path d="M2.34516 30.604V33.0043C2.34516 33.3357 2.60768 33.6044 2.93145 33.6044H15.2436V32.4042H3.51774V30.604H10.5532C10.644 30.6049 10.7336 30.5844 10.8152 30.5439L13.1603 29.3438C13.3593 29.2424 13.4853 29.0343 13.4853 28.8067C13.4853 28.5793 13.3593 28.3713 13.1603 28.2696L10.8152 27.0694C10.7342 27.027 10.6443 27.0044 10.5532 27.0035H3.51774V6.60086H25.7968C27.0919 6.60086 28.142 5.52611 28.142 4.20055V3.00039C28.142 2.669 27.8794 2.40031 27.5557 2.40031H25.7968V3.60047H26.9694V4.20055C26.9694 4.86333 26.4443 5.4007 25.7968 5.4007C25.1492 5.4007 24.6242 4.86333 24.6242 4.20055V2.40031C24.6242 1.73753 25.1492 1.20016 25.7968 1.20016H28.142C28.7895 1.20016 29.3145 1.73753 29.3145 2.40031V16.2021H30.4871V2.40031C30.4871 1.07475 29.4371 0 28.142 0H2.34516C1.04977 0 0 1.07475 0 2.40031V4.20055C0 5.52611 1.04977 6.60086 2.34516 6.60086V27.0035H1.75887C0.787542 27.0035 0 27.8096 0 28.8038C0 29.7979 0.787542 30.604 1.75887 30.604H2.34516ZM1.17258 4.20055V2.40031C1.17258 1.73753 1.69761 1.20016 2.34516 1.20016H23.7774C23.5664 1.56348 23.4539 1.9778 23.4516 2.40031V4.20055C23.4539 4.62306 23.5664 5.03737 23.7774 5.4007H2.34516C1.69761 5.4007 1.17258 4.86333 1.17258 4.20055ZM11.5873 28.8038L10.4147 29.4038H9.96694V28.2037H10.4147L11.5873 28.8038ZM1.17258 28.8038C1.17258 28.4724 1.4351 28.2037 1.75887 28.2037H8.79436V29.4038H1.75887C1.4351 29.4038 1.17258 29.1351 1.17258 28.8038Z" fill="#F4C51F"/>
</svg>
