<svg width="36" height="36" viewBox="0 0 36 36" fill="none" xmlns="http://www.w3.org/2000/svg">
<path d="M35.4376 0H6.18595C2.77524 0 0 2.77594 0 6.1875V29.8125C0 33.2241 2.77524 36 6.18595 36H16.3084C19.0994 36 21.3697 33.7292 21.3697 30.9375V24.75H35.4376C35.7486 24.75 36 24.4986 36 24.1875V0.5625C36 0.251438 35.7486 0 35.4376 0ZM1.12472 6.1875C1.12472 3.39581 3.39496 1.125 6.18595 1.125H34.8753V23.625H6.18595C4.93864 23.625 3.77849 23.9991 2.80561 24.6369C2.75162 24.3827 2.53624 24.1881 2.26631 24.1881H2.26068C1.95026 24.1881 1.7017 24.4395 1.7017 24.7506C1.7017 24.9727 1.83385 25.1601 2.02112 25.2512C1.68708 25.5566 1.38565 25.8958 1.12472 26.2665V6.1875ZM20.2449 27.7622C19.3165 26.6124 17.8976 25.875 16.3084 25.875H6.18595C4.01581 25.875 2.24944 27.6418 2.24944 29.8125C2.24944 31.9832 4.01581 33.75 6.18595 33.75L16.3079 33.7494C17.8583 33.7494 19.1197 32.4878 19.1197 30.9369C19.1197 29.3861 17.8583 28.1244 16.3079 28.1244L16.305 28.125H14.0618L14.059 28.1244L14.0562 28.125H6.18595C5.25581 28.125 4.49887 28.8821 4.49887 29.8125C4.49887 30.7429 5.25581 31.5 6.18595 31.5H14.059C14.37 31.5 14.6213 31.2486 14.6213 30.9375V29.25H16.3084L16.3101 29.2494C17.2391 29.2511 17.9949 30.0071 17.9949 30.9369C17.9949 31.8673 17.238 32.6244 16.3079 32.6244L6.18595 32.625C4.63553 32.625 3.37416 31.3633 3.37416 29.8125C3.37416 28.2617 4.63553 27 6.18595 27H16.3084C18.4786 27 20.2449 28.7668 20.2449 30.9375C20.2449 33.1082 18.4786 34.875 16.3084 34.875H6.18595C3.39496 34.875 1.12472 32.6042 1.12472 29.8125C1.12472 27.0208 3.39496 24.75 6.18595 24.75H20.2449V27.7622ZM13.4966 30.375H6.18595C5.87553 30.375 5.62359 30.123 5.62359 29.8125C5.62359 29.502 5.87553 29.25 6.18595 29.25H13.4966V30.375Z" fill="#F4C51F"/>
</svg>
