<svg width="36" height="36" viewBox="0 0 36 36" fill="none" xmlns="http://www.w3.org/2000/svg">
<path d="M35.6226 22.2418C35.3938 22.1509 35.1326 22.2078 34.9626 22.3858L32.4001 25.0794V9.07988H32.4031L34.8481 6.4398C35.073 6.19672 35.0582 5.81686 34.8148 5.59191C34.8148 5.59191 34.8146 5.59164 34.8143 5.59136L33.9343 4.77231L35.1571 3.45227C35.3817 3.20892 35.3666 2.82933 35.1233 2.60465L32.4833 0.159586C32.2402 -0.0653648 31.8606 -0.0508075 31.6357 0.192546L27.3697 4.79895H6.60004C6.59811 3.14272 5.25613 1.80071 3.59995 1.79879H3.00009C1.3439 1.80071 0.00192261 3.14272 0 4.79895V30.5996C0 30.9309 0.268616 31.1995 0.600128 31.1995H9.6828L8.42267 32.7126C8.21091 32.9675 8.24551 33.3457 8.50012 33.5575L11.2668 35.8611C11.5214 36.0731 11.8998 36.0385 12.1119 35.7839L12.1122 35.7836L15.1831 32.0941C15.3951 31.8386 15.5316 31.5285 15.5767 31.1995H26.571L22.965 34.9863C22.7368 35.2263 22.7464 35.6062 22.9864 35.8344C23.0979 35.9405 23.246 35.9998 23.4001 35.9995H35.3999C35.7314 35.9995 36 35.7309 36 35.3997V22.7994C36 22.5538 35.8506 22.333 35.6226 22.2418ZM33.5599 6.05884L32.4001 7.31351V6.43101L33.1199 5.65096L33.5599 6.05884ZM31.2001 5.952V5.96051L26.1258 11.4447L24.3636 9.81433L30.4763 3.20809L32.2386 4.8385L31.2072 5.952H31.2001ZM24.9733 12.0122L23.5931 12.4149L23.8878 11.0072L24.9733 12.0122ZM32.1067 1.44667L33.8681 3.07625L33.0529 3.95875L31.2913 2.32752L32.1067 1.44667ZM3.00009 2.9988H3.59995C4.59421 2.9988 5.40005 3.80466 5.40005 4.79895V27.6151C4.8837 27.2179 4.25116 27.0015 3.59995 26.9993H3.00009C2.3486 27.0015 1.71634 27.2179 1.19998 27.6151V4.79895C1.19998 3.80466 2.00583 2.9988 3.00009 2.9988ZM3.00009 28.1993H3.59995C4.59421 28.1993 5.40005 29.0055 5.40005 29.9995H1.19998C1.19998 29.0055 2.00583 28.1993 3.00009 28.1993ZM14.2614 31.3266L13.8774 31.7875L12.0331 30.2522L12.4165 29.7907C12.6285 29.5361 13.0067 29.5015 13.2613 29.7135C13.2616 29.7135 13.2616 29.7138 13.2619 29.7138L14.1839 30.4796C14.4388 30.6913 14.4737 31.0696 14.2619 31.3244C14.2616 31.3247 14.2616 31.3247 14.2614 31.325V31.3266ZM11.5741 34.5548L9.72949 33.0194L11.2651 31.1742L13.1094 32.7099L11.5741 34.5548ZM15.3246 29.9995C15.2249 29.8333 15.0988 29.6847 14.9513 29.5592L14.0293 28.7918C13.2652 28.1556 12.1303 28.2592 11.4942 29.0233L10.6801 29.9995H6.60004V5.99896H26.2595L23.0754 9.43997C23.0298 9.49133 22.9936 9.55066 22.9686 9.61465C22.9614 9.63196 22.9559 9.64816 22.9499 9.66629C22.9441 9.68414 22.9351 9.70227 22.9307 9.7215L22.2144 13.1463C22.1468 13.4707 22.355 13.7885 22.6794 13.856C22.7758 13.8761 22.8755 13.8722 22.9697 13.8448L26.3298 12.8656C26.3455 12.8606 26.3587 12.8516 26.3735 12.8464C26.3886 12.8409 26.4043 12.8332 26.4205 12.8252C26.4878 12.7947 26.5487 12.7516 26.6004 12.6986L31.2001 7.72743V26.3393L27.7141 29.9995H15.3246ZM34.8 34.7995H24.7997L34.8 24.2993V34.7995Z" fill="#F4C51F"/>
<path d="M28.2456 33.2293C28.3384 33.4534 28.5573 33.5995 28.8001 33.5995H32.9999C33.3314 33.5995 33.6 33.3309 33.6 32.9996V28.7995C33.6 28.4679 33.3311 28.1996 32.9999 28.1996C32.8409 28.1996 32.6882 28.2628 32.5758 28.3754L28.3758 32.5753C28.2041 32.7469 28.1527 33.0051 28.2456 33.2293ZM32.4001 30.2478V32.3995H30.2484L32.4001 30.2478Z" fill="#F4C51F"/>
<path d="M26.3999 22.7994H22.2001V16.1992C22.1992 16.0399 22.1358 15.8872 22.0235 15.7743L18.4235 12.1743C18.1892 11.94 17.8094 11.94 17.5751 12.1743L13.9752 15.7743C13.8634 15.8875 13.8005 16.0402 13.7999 16.1992V22.7994H9.60013C9.26862 22.7994 9 23.068 9 23.3993C9 23.7308 9.26862 23.9994 9.60013 23.9994H26.4001C26.7314 23.9994 27 23.7308 27 23.3993C27 23.068 26.7314 22.7994 26.3999 22.7994ZM18 13.4473L20.1517 15.5991H15.8483L18 13.4473ZM14.9999 16.7991H21.0001V22.7994H14.9999V16.7991Z" fill="#F4C51F"/>
<path d="M17.3999 9.599H18.6001V10.799H17.3999V9.599Z" fill="#F4C51F"/>
<path d="M17.3999 25.1994H18.6001V26.3994H17.3999V25.1994Z" fill="#F4C51F"/>
</svg>
