<svg width="36" height="36" viewBox="0 0 36 36" fill="none" xmlns="http://www.w3.org/2000/svg">
<path d="M35.934 16.971C35.919 16.935 35.904 16.902 35.883 16.8675C35.847 16.8075 35.8005 16.7565 35.748 16.7085C35.727 16.689 35.718 16.662 35.694 16.6455C35.6835 16.638 35.6685 16.638 35.658 16.6305C35.6445 16.6215 35.637 16.608 35.622 16.599L32.2545 14.6745C32.7045 14.241 33 13.6545 33 12.9915C33 12.096 32.5005 11.289 31.6981 10.8855L26.2021 8.13748L26.8396 6.543L27.2716 6.327C27.4951 6.462 27.7531 6.53548 28.0216 6.53548C28.1581 6.53548 28.2976 6.51748 28.4356 6.47845L34.2167 4.82548C35.2665 4.52398 36 3.55198 36 2.46002C36 1.10398 34.896 0 33.54 0H32.85C32.292 0 31.746 0.192023 31.3125 0.538523L27.1065 3.90305C26.7585 4.18205 26.5875 4.58402 26.5724 4.99957L25.914 5.32807C25.7489 5.41055 25.62 5.55005 25.5525 5.72105L24.855 7.46402L22.7595 6.417C21.1589 5.616 19.1069 6.04948 17.9655 7.41902L11.5755 15.087L0.558 18.0255C0.516023 18.0375 0.484523 18.063 0.4455 18.081C0.423 18.0915 0.396 18.087 0.3735 18.1005C0.36 18.108 0.354023 18.1245 0.342 18.132C0.2475 18.195 0.165023 18.2715 0.108 18.3675C0.102023 18.3779 0.099 18.3885 0.0930234 18.399C0.0435234 18.492 0.018 18.5955 0.0120234 18.7035C0.0120234 18.72 0 18.7335 0 18.75V29.25C0 29.5185 0.144 29.7675 0.378 29.901L10.878 35.901C10.9935 35.967 11.1225 36 11.25 36C11.3235 36 11.4 35.9895 11.4735 35.9655L35.4735 28.4655C35.787 28.3679 36 28.0785 36 27.75V17.25C36 17.2245 35.985 17.2035 35.9835 17.178C35.976 17.106 35.961 17.0385 35.934 16.971ZM32.2515 1.71C32.4195 1.575 32.6325 1.49998 32.85 1.49998H33.5415C34.071 1.49998 34.5015 1.9305 34.5015 2.45995C34.5015 2.88598 34.215 3.26545 33.8055 3.38245L28.422 4.92145C28.4205 4.91843 28.4205 4.91695 28.4205 4.91393C28.404 4.87941 28.374 4.85845 28.353 4.82843L32.2515 1.71ZM19.119 8.379C19.5855 7.821 20.2695 7.50002 20.997 7.50002C21.3735 7.50002 21.7515 7.59002 22.0935 7.75652L24.297 8.85755L24.1455 9.23555L16.863 13.6065C16.509 13.8195 16.3936 14.28 16.6065 14.6355C16.7475 14.871 16.995 15 17.25 15C17.382 15 17.5155 14.9655 17.6356 14.892L25.1356 10.392C25.2766 10.308 25.3846 10.1805 25.4461 10.0275L25.6441 9.53255L31.0306 12.225C31.3216 12.372 31.5031 12.6645 31.5031 12.996C31.5031 13.389 31.2361 13.7295 30.8551 13.8255L30.4906 13.917C30.4891 13.917 30.4861 13.9184 30.4846 13.9184L10.2991 18.9644L19.119 8.379ZM10.5 33.957L1.49998 28.815V20.043L10.5 25.185V33.957ZM11.3385 23.937L2.70752 19.005L9.9135 17.0835L7.67398 19.77C7.46698 20.0205 7.443 20.3745 7.61548 20.649C7.7535 20.8709 7.9965 21 8.24998 21C8.30995 21 8.37148 20.9924 8.433 20.976L10.953 20.346L13.1145 21.6435C13.236 21.7155 13.3695 21.75 13.5 21.75C13.7535 21.75 14.0025 21.621 14.1435 21.387C14.3565 21.0315 14.2425 20.571 13.887 20.3579L13.0095 19.8314L15.8925 19.1114L17.6145 20.1434C17.736 20.2154 17.8696 20.2499 18.0001 20.2499C18.2535 20.2499 18.5026 20.1209 18.6436 19.8869C18.8565 19.5314 18.7426 19.0709 18.3871 18.8579L17.9506 18.5969L20.8351 17.8754L22.1131 18.6434C22.236 18.7154 22.3696 18.75 22.5001 18.75C22.7535 18.75 23.0026 18.6209 23.1436 18.3869C23.3551 18.0329 23.2426 17.5755 22.8916 17.3609L25.7761 16.6395L26.6145 17.142C26.736 17.2155 26.8696 17.25 27.0001 17.25C27.2535 17.25 27.5026 17.121 27.6436 16.887C27.78 16.6589 27.7696 16.392 27.6585 16.17L30.5731 15.441L33.3841 17.0475L11.3385 23.937ZM34.5 27.198L12 34.23V25.3005L34.5 18.27V27.198Z" fill="#F4C51F"/>
</svg>
