<svg width="113" height="39" viewBox="0 0 113 39" fill="none" xmlns="http://www.w3.org/2000/svg">
<path d="M2.56628 35.9393C1.78399 35.1341 1.15244 34.2221 0.696424 33.1555C0.24041 32.0908 0 30.9823 0 29.807C0 28.6106 0.238502 27.4811 0.696424 26.4145C1.15244 25.3708 1.78399 24.4569 2.56628 23.6746C3.37146 22.8694 4.28349 22.2608 5.35006 21.8048C6.39375 21.3487 7.5252 21.1083 8.71961 21.1083C9.91594 21.1083 11.0455 21.3258 12.0892 21.7819C13.1328 22.2379 14.0678 22.8694 14.8729 23.6727L12.8066 25.6952C11.6541 24.5637 10.2842 24.0219 8.71961 24.0219C7.91443 24.0219 7.15504 24.1745 6.45862 24.4569C5.74121 24.7622 5.13255 25.1743 4.60976 25.7181C4.08887 26.2409 3.67483 26.8495 3.37146 27.5441C3.06618 28.2615 2.91544 29.0018 2.91544 29.805C2.91544 30.6102 3.06808 31.3486 3.37146 32.066C3.67483 32.7625 4.08887 33.3711 4.63265 33.892C5.15354 34.4358 5.7641 34.8479 6.45862 35.1532C7.17603 35.4356 7.91634 35.5882 8.71961 35.5882L12.0892 37.8282C11.0455 38.2843 9.91403 38.5018 8.71961 38.5018C7.52329 38.5018 6.39375 38.2633 5.35006 37.8053C4.28349 37.3512 3.37146 36.7216 2.56628 35.9393Z" fill="black"/>
<path d="M34.3847 35.5901L31.4922 38.5037V21.1102L34.3847 23.9799V35.5901Z" fill="black"/>
<path d="M29.8949 26.176C29.8949 25.4796 29.7651 24.827 29.5037 24.2184C29.2424 23.5887 28.8741 23.0659 28.4162 22.6099C27.9602 22.131 27.4164 21.7838 26.7848 21.5014C26.1552 21.24 25.5026 21.1102 24.8272 21.1102H15.4131L15.4875 21.1846V38.5037L18.3037 35.6645V38.5037H24.8272C25.5236 38.5037 26.1762 38.3739 26.7848 38.1125C27.4145 37.8301 27.9583 37.4829 28.4162 37.004C28.8722 36.548 29.2424 36.0252 29.5037 35.3955C29.7651 34.7869 29.8949 34.1343 29.8949 33.4379C29.8949 32.0031 29.395 30.7858 28.3723 29.807C29.395 28.8072 29.8949 27.5898 29.8949 26.176ZM26.8306 34.2641C26.7219 34.5255 26.5692 34.764 26.3746 34.9605C26.1781 35.178 25.9396 35.3306 25.6572 35.4394C25.3958 35.5482 25.1134 35.592 24.831 35.592H18.3839V31.2647H24.831C25.1363 31.2647 25.4187 31.3295 25.7011 31.4383C25.9625 31.5471 26.18 31.7207 26.3746 31.9172C26.5692 32.1137 26.7219 32.3522 26.8306 32.6136C26.9394 32.875 27.0043 33.1574 27.0043 33.4398C27.0043 33.7203 26.9394 34.0027 26.8306 34.2641ZM26.8306 27.0232C26.7219 27.2846 26.5692 27.5231 26.3746 27.7196C26.1781 27.9371 25.9396 28.0897 25.6572 28.1985C25.3958 28.3282 25.1134 28.3721 24.831 28.3721H18.3839V24.0238H24.831C25.1134 24.0238 25.3958 24.0677 25.6572 24.1764C25.9396 24.2852 26.1781 24.4378 26.3746 24.6553C26.5711 24.8518 26.7219 25.0904 26.8306 25.3517C26.9394 25.6131 27.0043 25.8955 27.0043 26.1779C27.0043 26.4813 26.9394 26.7637 26.8306 27.0232Z" fill="black"/>
<path d="M41.4823 21.1102V21.1141H34.207L37.1206 24.0066H41.4823V24.0238V38.5037H44.3958V24.0238H50.179V21.1102H41.4823Z" fill="black"/>
<path d="M58.1542 35.9393C57.3719 35.1341 56.7403 34.2221 56.2843 33.1555C55.8283 32.0908 55.5879 30.9823 55.5879 29.807C55.5879 28.6106 55.8264 27.4811 56.2843 26.4145C56.7403 25.3708 57.3719 24.4569 58.1542 23.6746C58.9593 22.8694 59.8714 22.2608 60.938 21.8048C61.9816 21.3487 63.1131 21.1083 64.3075 21.1083C65.5038 21.1083 66.6334 21.3258 67.6771 21.7819C68.7207 22.2379 69.6557 22.8694 70.4608 23.6727L68.3945 25.6952C67.242 24.5637 65.8721 24.0219 64.3075 24.0219C63.5023 24.0219 62.7429 24.1745 62.0465 24.4569C61.3291 24.7622 60.7204 25.1743 60.1976 25.7181C59.6768 26.2409 59.2627 26.8495 58.9593 27.5441C58.6541 28.2615 58.5033 29.0018 58.5033 29.805C58.5033 30.6102 58.656 31.3486 58.9593 32.066C59.2627 32.7625 59.6768 33.3711 60.2205 33.892C60.7414 34.4358 61.352 34.8479 62.0465 35.1532C62.7639 35.4356 63.5042 35.5882 64.3075 35.5882L67.6771 37.8282C66.6334 38.2843 65.5019 38.5018 64.3075 38.5018C63.1112 38.5018 61.9816 38.2633 60.938 37.8053C59.8714 37.3512 58.9593 36.7216 58.1542 35.9393Z" fill="black"/>
<path d="M73.7864 35.5901L72.3077 38.5037H69.0889L77.7856 21.1102L83.5917 32.7205H80.3309L77.7875 27.6108L75.2212 32.7205L73.7864 35.5901Z" fill="black"/>
<path d="M111.784 21.1102V38.5037H108.892V31.2628H100.195V38.5037H97.3025L97.2949 31.6157L100.012 28.2939L108.89 28.3492V21.1083H111.784V21.1102Z" fill="black"/>
<path d="M104.122 8.13004C102.95 9.62782 102.99 10.6238 104.07 11.7667C104.318 12.0281 104.547 12.3315 104.696 12.6577C105.028 13.3847 104.79 13.856 104.017 14.1574C103.305 14.4341 102.754 14.312 102.464 13.5469C102.349 13.2435 102.275 12.923 102.178 12.5967C99.7812 13.8522 99.6629 15.846 101.766 18.3627C98.8978 17.8037 96.9783 14.6116 97.7053 11.5759C98.2071 9.47328 99.2412 7.66257 100.825 6.18577C101.607 5.45691 102.428 4.76812 103.225 4.05643C104.425 2.98604 105.202 1.74011 104.801 0C106.511 1.07039 107.131 2.56628 106.677 4.38843C106.551 4.89023 106.419 5.39204 106.329 5.90148C106.139 6.99286 106.476 7.49467 107.49 7.67402C108.245 7.80758 108.762 7.38019 108.987 6.42809C109.022 6.28499 109.043 6.13807 109.106 5.80608C111.208 7.70073 112.994 9.62973 113 12.5299C113.006 15.5408 110.779 16.8649 108.432 18.0422C108.781 17.6148 109.163 17.2103 109.476 16.7581C110.548 15.203 110.413 13.7281 108.953 12.5395C108.087 11.8335 107.077 11.2935 106.093 10.7516C105.095 10.2002 104.17 9.63546 104.122 8.13004Z" fill="url(#paint0_linear)"/>
<path d="M86.1805 38.5037H82.9407L81.5059 35.613H84.7247L86.1805 38.5037Z" fill="#F7931E"/>
<path d="M94.9995 32.1767V32.1557L90.0634 38.5056H86.3447L93.1716 29.8089L86.3447 21.1121H90.0634L94.9995 27.4601L99.9565 21.1121H103.631L96.8483 29.8089L94.9995 32.1767ZM94.9995 32.1767L90.0634 38.5037L94.9995 32.1538V32.1767Z" fill="black"/>
<defs>
<linearGradient id="paint0_linear" x1="97.5495" y1="9.18038" x2="112.998" y2="9.18038" gradientUnits="userSpaceOnUse">
<stop stop-color="#FFB900"/>
<stop offset="1" stop-color="#ED6924"/>
</linearGradient>
</defs>
</svg>
