<svg width="36" height="36" viewBox="0 0 36 36" fill="none" xmlns="http://www.w3.org/2000/svg">
<path d="M6.06642 9.19108L3.77542 15.6068C3.65947 15.9306 3.60022 16.2719 3.60022 16.6158V25.6913L0.0383508 35.1893C-0.0779732 35.4996 0.0792254 35.8454 0.389498 35.9618C0.456922 35.9871 0.528321 36.0001 0.600246 36H9.60016C9.87541 35.9999 10.1153 35.8126 10.182 35.5456L11.5463 30.0831V30.087C11.8282 33.4025 14.6577 36 17.9881 36C21.3308 36 24.1605 33.3882 24.4298 30.0533L24.4334 30.0077L25.8179 35.5456C25.8847 35.8127 26.1247 36.0001 26.4 36H35.3999C35.7313 36.0001 36 35.7315 36 35.4001C36 35.3281 35.9871 35.2567 35.9618 35.1893L32.4 25.6913V16.6158C32.4 16.2719 32.3407 15.9306 32.2248 15.6068L29.9338 9.19138C29.506 7.99821 28.3759 7.20164 27.1084 7.20006H26.2562L26.4 5.40006V2.40007C26.4006 1.0752 25.3271 0.00067632 24.0023 7.6321e-05C23.3556 -0.000223678 22.7361 0.260626 22.2844 0.72345C21.5258 -0.151648 20.2015 -0.246073 19.3265 0.512475C19.2827 0.550425 19.2405 0.590175 19.2 0.63165C18.3896 -0.197248 17.0606 -0.212173 16.2318 0.598275C15.9881 0.83655 15.8061 1.13062 15.7014 1.455C14.6826 0.901574 13.4081 1.27875 12.8546 2.29755C12.7926 2.4117 12.7414 2.53132 12.7015 2.655C11.6827 2.10157 10.4081 2.47882 9.85471 3.49762C9.68761 3.80527 9.60009 4.14982 9.60009 4.49999L9.60241 7.19999H8.89172C7.62438 7.20164 6.49422 7.99806 6.06642 9.19108ZM26.1604 8.40006H27.1084C27.8689 8.40126 28.547 8.87908 28.8041 9.59481L31.095 16.0105C31.1645 16.2048 31.2 16.4095 31.2 16.6158V25.8C31.2 25.8719 31.2129 25.9433 31.2381 26.0107L34.5339 34.8H26.8682L24.5661 25.6002L21.0715 15.7002C21.0241 15.5661 21 15.4248 21.0001 15.2825V15.0543C21 14.3616 21.5615 13.8 22.2542 13.8C22.7292 13.8 23.1636 14.0683 23.376 14.4932L27.0633 21.8684L28.1367 21.3317L25.5417 16.1417L26.1604 8.40006ZM10.8002 4.50007C10.8002 4.00304 11.2031 3.60007 11.7001 3.60007C12.1972 3.60007 12.6001 4.00304 12.6001 4.50007V6.00006H13.8001V3.30007C13.8001 2.80305 14.2031 2.40007 14.7001 2.40007C15.1971 2.40007 15.6001 2.80305 15.6001 3.30007V5.40006H16.8001V2.10007C16.8001 1.60305 17.2031 1.20007 17.7001 1.20007C18.1971 1.20007 18.6001 1.60305 18.6001 2.10007V4.80007H19.8001V2.10007C19.8001 1.60305 20.203 1.20007 20.7001 1.20007C21.1971 1.20007 21.6001 1.60305 21.6001 2.10007V4.80007H22.8V2.40007C22.8 1.7373 23.3373 1.20007 24 1.20007C24.6628 1.20007 25.2 1.7373 25.2 2.40007L25.2017 5.35229L24.5043 14.0657L24.4497 13.9565C23.8436 12.7441 22.3695 12.2525 21.157 12.8585C20.3253 13.2742 19.7999 14.1243 19.8001 15.0543V15.2825C19.8 15.5607 19.8471 15.8368 19.9395 16.0992L23.4182 25.9456L23.5204 26.3546L23.2336 29.9576C23.001 32.6855 20.7262 34.7857 17.9884 34.8C15.2761 34.8 12.9716 32.685 12.742 29.985L12.4439 26.4891L12.5662 25.9997L16.0607 16.0986C16.1531 15.8364 16.2003 15.5604 16.2001 15.2825V15.0543C16.2001 13.6988 15.1013 12.6 13.7458 12.6C12.8163 12.6 11.9665 13.1251 11.5507 13.9565L11.4019 14.2542L10.8002 7.20006V4.50007ZM10.3735 16.3113L7.86348 21.3317L8.93687 21.8684L12.6241 14.4932C12.934 13.8736 13.6873 13.6226 14.3069 13.9324C14.7318 14.1449 15.0002 14.5792 15.0001 15.0543V15.2825C15.0003 15.4246 14.976 15.5657 14.9286 15.6996L11.4183 25.6544L9.13142 34.8H1.46626L4.76211 26.0107C4.78731 25.9433 4.80021 25.8719 4.80021 25.8V16.6158C4.80013 16.4095 4.83568 16.2048 4.90521 16.0105L7.19621 9.59451C7.45346 8.87901 8.13145 8.40133 8.8918 8.40006H9.70029L10.3735 16.3113Z" fill="#F4C51F"/>
<path d="M16.779 13.264L16.8429 13.4233L17.9573 12.9768L17.8934 12.8177C17.1278 10.9027 15.1046 9.80692 13.0824 10.2118L13.3179 11.3884C14.7729 11.0974 16.2282 11.8861 16.779 13.264Z" fill="#F4C51F"/>
<path d="M17.4001 15.5409C17.002 17.5644 17.7941 19.6375 19.4401 20.88L20.1596 19.92C18.8823 18.9558 18.2676 17.3469 18.5765 15.7765L18.5882 15.7183L17.4116 15.4816L17.4001 15.5409Z" fill="#F4C51F"/>
</svg>
