<svg width="35" height="36" viewBox="0 0 35 36" fill="none" xmlns="http://www.w3.org/2000/svg">
<path d="M2.97794 36H28.8138L31.792 17.5275H0L2.97794 36ZM27.8893 34.9453H3.90243L1.26467 18.5822H30.527L27.8893 34.9453Z" fill="#F4C51F"/>
<path d="M13.9795 4.33292C13.9795 5.36344 14.8393 6.20197 15.8958 6.20197C16.9524 6.20197 17.8121 5.36344 17.8121 4.33292C17.8121 3.30212 16.9524 2.46387 15.8958 2.46387C14.8393 2.46387 13.9795 3.30212 13.9795 4.33292ZM16.7308 4.33292C16.7308 4.78199 16.3563 5.14728 15.8958 5.14728C15.4354 5.14728 15.0609 4.78199 15.0609 4.33292C15.0609 3.88385 15.4354 3.51856 15.8958 3.51856C16.3563 3.51856 16.7308 3.88385 16.7308 4.33292Z" fill="#F4C51F"/>
<path d="M3.42878 13.1206L4.19333 12.3749L3.43131 11.6314C3.02384 11.2343 3.02384 10.591 3.43131 10.1936L7.15015 6.56645C7.98002 5.75703 7.98031 4.44663 7.15015 3.63721L6.38785 2.89371L5.6233 3.63941L6.3856 4.38291C6.79279 4.78006 6.79279 5.42332 6.3856 5.82047L2.66648 9.4479C1.8366 10.2573 1.8366 11.5677 2.66648 12.3771L3.42878 13.1206Z" fill="#F4C51F"/>
<path d="M9.30355 8.66676L5.58472 12.2939C4.75484 13.1033 4.75456 14.4137 5.58472 15.2234L6.34702 15.9667L7.11156 15.221L6.34955 14.4777C5.94207 14.0803 5.94179 13.4373 6.34955 13.0399L10.0684 9.41246C10.8963 8.60497 10.8963 7.29072 10.0684 6.48322L9.30609 5.73972L8.54125 6.4857L9.30355 7.22892C9.7099 7.62526 9.7099 8.27043 9.30355 8.66676Z" fill="#F4C51F"/>
<path d="M10.1472 16.2298L10.8048 17.0672C12.6878 15.6601 13.7678 13.528 13.7678 11.2173V10.9033C13.7678 9.12325 13.4206 7.2888 12.7357 5.45106C12.6022 5.09345 12.5346 4.71717 12.5346 4.33265C12.5346 2.48502 14.1049 0.980158 16.0347 1.05734C17.755 1.12463 19.1686 2.49078 19.2528 4.1673C19.2756 4.62461 19.2044 5.07011 19.0405 5.49198C18.366 7.22893 18.0239 9.04937 18.0239 10.9028V11.2173C18.0239 13.528 19.1038 15.6601 20.9869 17.0672L21.6445 16.2298C20.0309 15.0243 19.1053 13.1973 19.1053 11.2173V10.9028C19.1053 9.17736 19.4237 7.48271 20.0517 5.86552C20.2685 5.30741 20.3632 4.71854 20.3328 4.11567C20.2215 1.89862 18.3525 0.0921858 16.078 0.0034709C13.54 -0.0940331 11.4533 1.87527 11.4533 4.33265C11.4533 4.84049 11.5428 5.3379 11.7194 5.81141C12.3609 7.53325 12.6864 9.2463 12.6864 10.9033V11.2173C12.6864 13.1973 11.7608 15.024 10.1472 16.2298Z" fill="#F4C51F"/>
<path d="M34.0138 4.0632C33.0707 3.53201 31.8663 3.8465 31.3217 4.76688L24.4444 16.385L25.381 16.9123L32.2583 5.29423C32.5038 4.87894 33.0473 4.73667 33.4731 4.97672C33.8989 5.21622 34.0445 5.74631 33.7987 6.1616L27.747 16.385L28.6836 16.9123L34.7353 6.68894C35.2799 5.76911 34.9574 4.59439 34.0138 4.0632Z" fill="#F4C51F"/>
<path d="M5.82211 19.5141L6.89811 19.4095L8.39088 34.0153L7.31488 34.12L5.82211 19.5141Z" fill="#F4C51F"/>
<path d="M23.4011 34.0128L24.8938 19.407L25.9698 19.5117L24.4771 34.1175L23.4011 34.0128Z" fill="#F4C51F"/>
<path d="M11.8808 19.4795L12.9613 19.4411L13.5053 34.0458L12.4245 34.0843L11.8808 19.4795Z" fill="#F4C51F"/>
<path d="M18.2841 34.0469L18.8282 19.4422L19.9087 19.4806L19.3649 34.0854L18.2841 34.0469Z" fill="#F4C51F"/>
<path d="M27.3446 33.7967L26.2765 33.633L27.288 27.3587L28.3561 27.5226L27.3446 33.7967ZM28.4682 26.828L27.3998 26.6641L27.5679 25.6223L28.6361 25.786L28.4682 26.828ZM28.7481 25.0914L27.6797 24.9277L27.8478 23.8856L28.916 24.0496L28.7481 25.0914Z" fill="#F4C51F"/>
<path d="M18.0343 16.6094C17.1656 15.4563 16.5813 14.1039 16.345 12.6988L17.4123 12.5279C17.6209 13.7699 18.1374 14.965 18.9056 15.9845L18.0343 16.6094ZM16.2523 11.958C16.2321 11.7133 16.2217 11.4642 16.2217 11.2172V10.8605L17.303 10.8632V11.2172C17.303 11.4359 17.3123 11.6567 17.33 11.8731L16.2523 11.958ZM17.3196 10.1823L16.2394 10.1351C16.256 9.77364 16.2847 9.40862 16.325 9.05019L17.3999 9.16472C17.3621 9.5009 17.3351 9.8434 17.3196 10.1823Z" fill="#F4C51F"/>
<path d="M27.3565 16.3649L26.4198 15.8376L28.7574 11.8885L29.694 12.4159L27.3565 16.3649ZM30.0545 11.8067L29.1179 11.2793L29.6585 10.3661L30.5952 10.8934L30.0545 11.8067ZM30.9556 10.2845L30.019 9.75716L30.5597 8.84392L31.4963 9.37126L30.9556 10.2845Z" fill="#F4C51F"/>
</svg>
