<svg width="36" height="36" viewBox="0 0 36 36" fill="none" xmlns="http://www.w3.org/2000/svg">
<path d="M33.6 6.60004C32.2751 6.60141 31.2014 7.67505 31.2001 9V11.4C31.2001 11.7315 31.4687 12.0001 31.7999 12.0001C32.1314 12.0001 32.4001 11.7315 32.4001 11.4V9C32.4001 8.33725 32.9373 7.80002 33.6 7.80002C34.2628 7.80002 34.8 8.33725 34.8 9V17.3999H33.6V15.6C33.5992 14.9376 33.0625 14.4006 32.4001 14.4001H1.19998C0.537506 14.4006 0.000549316 14.9376 0 15.6V20.4C0.000549316 21.0624 0.537506 21.5994 1.19998 21.5999V34.8C1.20053 35.4625 1.73749 35.9995 2.39996 36H31.2001C31.8625 35.9995 32.3992 35.4625 32.4001 34.8V27.6001H34.8V35.3999C34.8 35.7314 35.0686 36 35.3999 36C35.7314 36 36 35.7314 36 35.3999V9C35.9986 7.67505 34.925 6.60141 33.6 6.60004ZM28.2 34.8V23.4001C28.2 23.0685 27.9314 22.7999 27.6001 22.7999C27.2686 22.7999 27 23.0685 27 23.4001V34.8H24.6V23.4001C24.6 23.0685 24.3314 22.7999 23.9999 22.7999C23.6687 22.7999 23.4001 23.0685 23.4001 23.4001V34.8H21.0001V23.4001C21.0001 23.0685 20.7315 22.7999 20.4 22.7999C20.0687 22.7999 19.8001 23.0685 19.8001 23.4001V34.8H17.3999V23.4001C17.3999 23.0685 17.1313 22.7999 16.8 22.7999C16.4685 22.7999 16.1999 23.0685 16.1999 23.4001V34.8H13.7999V23.4001C13.7999 23.0685 13.5313 22.7999 13.2001 22.7999C12.8686 22.7999 12.5999 23.0685 12.5999 23.4001V34.8H10.2V23.4001C10.2 23.0685 9.93137 22.7999 9.60013 22.7999C9.26862 22.7999 9 23.0685 9 23.4001V34.8H6.60004V23.4001C6.60004 23.0685 6.33142 22.7999 5.99991 22.7999C5.66867 22.7999 5.40005 23.0685 5.40005 23.4001V34.8H2.39996V21.5999H31.2001L31.2003 26.9981L31.2001 27L31.2003 27.0019L31.2009 34.8H28.2ZM1.19998 20.4V15.6H32.4001L32.4003 17.9978L32.4001 18L32.4003 18.0022L32.4009 20.4H1.19998ZM34.8 26.3999H32.4001V21.5999C33.0625 21.5994 33.5992 21.0624 33.6 20.4V18.6001H34.8V26.3999Z" fill="#F4C51F"/>
<path d="M21.2426 6.57065C21.394 6.62009 21.5587 6.60718 21.7005 6.53494C21.8425 6.46298 21.9499 6.33746 21.999 6.18613C22.1391 5.73761 22.2069 5.26987 22.2001 4.79993C22.2179 3.95096 21.9814 3.116 21.5208 2.40244C21.1663 1.86932 20.9842 1.24008 21.0001 0.600128C21.0001 0.268616 20.7315 0 20.4 0C20.0687 0 19.8001 0.268616 19.8001 0.600128C19.7823 1.4491 20.0187 2.28406 20.4791 2.99762C20.8339 3.53073 21.0157 4.15997 21.0001 4.79993C21.0064 5.14325 20.9583 5.48547 20.8578 5.81396C20.8084 5.9653 20.8213 6.1301 20.8935 6.27209C20.9655 6.41409 21.0913 6.52148 21.2426 6.57065Z" fill="#F4C51F"/>
<path d="M20.4 9.60013C20.7315 9.60013 21.0001 9.33124 21.0001 9C20.9993 8.82559 21.01 8.65146 21.032 8.47842C21.0682 8.15378 20.838 7.85962 20.5142 7.81677C20.1901 7.7742 19.8916 7.99832 19.8424 8.32159C19.8136 8.54654 19.7993 8.77313 19.8001 9C19.8001 9.15903 19.8633 9.31174 19.9756 9.42435C20.0882 9.53668 20.2409 9.60013 20.4 9.60013Z" fill="#F4C51F"/>
<path d="M15.6363 4.79993C15.8091 4.79993 15.9736 4.72549 16.0878 4.59558C16.2018 4.46567 16.2543 4.29291 16.232 4.12152C16.2101 3.94849 16.1993 3.77435 16.1999 3.59995C16.1999 3.26871 15.9313 3.00009 15.6 3.00009C15.2685 3.00009 14.9999 3.26871 14.9999 3.59995C14.9994 3.82681 15.0136 4.05341 15.0425 4.27863C15.0818 4.57663 15.3355 4.79938 15.6363 4.79993Z" fill="#F4C51F"/>
<path d="M15.6 12.5999C15.9313 12.5999 16.1999 12.3313 16.1999 12.0001C16.1842 11.3599 16.3661 10.7306 16.7209 10.1978C17.1812 9.48395 17.4177 8.64899 17.3999 7.80002C17.407 7.33035 17.3389 6.86234 17.1985 6.41409C17.0936 6.10181 16.7569 5.93207 16.4435 6.03424C16.1304 6.13641 15.9582 6.47205 16.0576 6.78598C16.1584 7.1142 16.2065 7.4567 16.1999 7.80002C16.2158 8.43997 16.034 9.06949 15.6791 9.60233C15.2185 10.3159 14.9821 11.1508 14.9999 12.0001C14.9999 12.1591 15.0631 12.3118 15.1757 12.4242C15.2883 12.5368 15.4407 12.5999 15.6 12.5999Z" fill="#F4C51F"/>
<path d="M25.2364 4.79993C25.4092 4.79993 25.5737 4.72549 25.6877 4.59558C25.8017 4.46567 25.8544 4.29291 25.8319 4.12152C25.8099 3.94849 25.7992 3.77435 25.8 3.59995C25.8 3.26871 25.5314 3.00009 25.1999 3.00009C24.8687 3.00009 24.6 3.26871 24.6 3.59995C24.5995 3.82681 24.6135 4.05341 24.6426 4.27863C24.6819 4.57663 24.9357 4.79938 25.2364 4.79993Z" fill="#F4C51F"/>
<path d="M25.1999 12.5999C25.5314 12.5999 25.8 12.3313 25.8 12.0001C25.7844 11.3599 25.9662 10.7306 26.321 10.1978C26.7814 9.48395 27.0179 8.64899 27 7.80002C27.0069 7.33035 26.939 6.86234 26.7984 6.41409C26.6938 6.10181 26.3568 5.93207 26.0436 6.03424C25.7305 6.13641 25.558 6.47205 25.6577 6.78598C25.7585 7.1142 25.8066 7.4567 25.8 7.80002C25.8157 8.43997 25.6339 9.06949 25.279 9.60233C24.8187 10.3159 24.5822 11.1508 24.6 12.0001C24.6 12.3313 24.8687 12.5999 25.1999 12.5999Z" fill="#F4C51F"/>
<path d="M11.6425 6.57065C11.7938 6.62009 11.9586 6.60718 12.1006 6.53494C12.2423 6.46298 12.3497 6.33746 12.3989 6.18613C12.539 5.73761 12.6068 5.26987 12.5999 4.79993C12.6178 3.95096 12.3813 3.116 11.921 2.40244C11.5661 1.86932 11.3843 1.24008 11.4 0.600128C11.4 0.268616 11.1313 0 10.8001 0C10.4686 0 10.2 0.268616 10.2 0.600128C10.1821 1.4491 10.4186 2.28406 10.8792 2.99762C11.2338 3.53073 11.4159 4.15997 11.4 4.79993C11.4066 5.14325 11.3585 5.48547 11.258 5.81396C11.2085 5.9653 11.2212 6.1301 11.2934 6.27209C11.3656 6.41409 11.4911 6.52148 11.6425 6.57065Z" fill="#F4C51F"/>
<path d="M10.8001 9.60013C11.1313 9.60013 11.4 9.33124 11.4 9C11.3991 8.82559 11.4099 8.65146 11.4318 8.47842C11.4684 8.15378 11.2382 7.85962 10.9141 7.81677C10.5903 7.7742 10.2917 7.99832 10.2426 8.32159C10.2134 8.54654 10.1994 8.77313 10.2 9C10.2 9.15903 10.2632 9.31174 10.3758 9.42435C10.4884 9.53668 10.6408 9.60013 10.8001 9.60013Z" fill="#F4C51F"/>
<path d="M6.03616 4.79993C6.2092 4.79993 6.37372 4.72549 6.4877 4.59558C6.60168 4.46567 6.65442 4.29291 6.6319 4.12152C6.60992 3.94849 6.59921 3.77435 6.60004 3.59995C6.60004 3.26871 6.33142 3.00009 5.99991 3.00009C5.66867 3.00009 5.40005 3.26871 5.40005 3.59995C5.39951 3.82681 5.41351 4.05341 5.44235 4.27863C5.4819 4.57663 5.73569 4.79938 6.03616 4.79993Z" fill="#F4C51F"/>
<path d="M5.99991 12.5999C6.33142 12.5999 6.60004 12.3313 6.60004 12.0001C6.58411 11.3599 6.7662 10.7306 7.12079 10.1978C7.58139 9.48395 7.81787 8.64899 7.80002 7.80002C7.80688 7.33035 7.73904 6.86234 7.59842 6.41409C7.49377 6.10181 7.15677 5.93207 6.84366 6.03424C6.53027 6.13641 6.35806 6.47205 6.45749 6.78598C6.55856 7.1142 6.60663 7.4567 6.60004 7.80002C6.61569 8.43997 6.43387 9.06949 6.07901 9.60233C5.61868 10.3159 5.3822 11.1508 5.40005 12.0001C5.40005 12.1591 5.46323 12.3118 5.57584 12.4242C5.68817 12.5368 5.84088 12.5999 5.99991 12.5999Z" fill="#F4C51F"/>
</svg>
