<svg width="36" height="36" viewBox="0 0 36 36" fill="none" xmlns="http://www.w3.org/2000/svg">
<path d="M34.0027 20.495H32.7846L26.8376 15.3189C26.2306 14.7906 25.4624 14.5478 24.7046 14.6041L22.3123 10.9063C22.0209 10.456 21.5729 10.1494 21.0508 10.0431C20.5289 9.93658 19.9983 10.0437 19.5572 10.3445L17.3786 11.8286C17.1402 11.9912 16.8364 12.0292 16.5659 11.9304L15.0088 11.3622C14.3818 11.1336 13.6891 11.2382 13.156 11.6419C12.9195 11.8208 12.8717 12.1594 13.0488 12.398C13.226 12.6369 13.5608 12.6852 13.7973 12.5062C14.0415 12.3214 14.3587 12.2737 14.6457 12.3783L16.2025 12.9465C16.7927 13.1618 17.4558 13.0789 17.9765 12.7243L20.1551 11.2401C20.3573 11.1022 20.6003 11.0534 20.8393 11.1019C21.0785 11.1508 21.284 11.2912 21.4175 11.4976L21.8061 12.0986L19.705 12.7351C19.4221 12.8208 19.2617 13.1219 19.3465 13.4077C19.4314 13.6935 19.7294 13.8555 20.012 13.7698L21.4765 13.3261L21.0722 14.007C20.9203 14.2628 21.0024 14.5944 21.2557 14.7478C21.3417 14.8003 21.4367 14.825 21.5301 14.825C21.7119 14.825 21.8891 14.7315 21.9893 14.5625L22.6644 13.4254L23.6205 14.9032C23.5367 14.9448 23.4543 14.9903 23.3736 15.0406L19.0831 17.7131L17.8535 15.9054C17.1314 14.8441 15.746 14.5136 14.6303 15.1366L13.3512 15.8508C13.0208 16.035 12.6248 16.0763 12.2644 15.9637L11.7178 15.793L12.7289 14.1355C12.8838 13.8816 12.8055 13.5489 12.5542 13.3924C12.3029 13.2356 11.9733 13.3147 11.8186 13.5689L10.6629 15.4637L9.49253 15.0983C8.34336 14.7395 7.11343 15.265 6.56823 16.3485L4.48081 20.495H1.9976C0.896217 20.495 0 21.4003 0 22.513V24.7255C0 25.8384 0.896217 26.7435 1.9976 26.7435H3.34454V35.4598C3.34454 35.758 3.58404 36 3.8793 36H32.1207C32.416 36 32.6555 35.758 32.6555 35.4598V26.7435H34.0024C35.1041 26.7435 36 25.8384 36 24.7255V22.513C36.0003 21.4003 35.1041 20.495 34.0027 20.495ZM21.5106 17.47V18.6018C21.5106 18.9001 21.7501 19.142 22.0453 19.142C22.3406 19.142 22.5801 18.9001 22.5801 18.6018V17.2952L24.7724 18.1659C25.0471 18.2752 25.3575 18.1385 25.4657 17.861C25.5736 17.5832 25.4385 17.2697 25.1636 17.1607L23.2363 16.3951L23.9347 15.9601C24.6326 15.5256 25.5184 15.5966 26.1394 16.1371L31.1462 20.495H20.9758L19.6896 18.6043L21.5106 17.47ZM7.5213 16.838C7.83002 16.2248 8.52628 15.9273 9.17695 16.1304L11.9485 16.9959C12.5852 17.1948 13.285 17.1218 13.8684 16.7964L15.1475 16.0822C15.7792 15.7295 16.5634 15.9168 16.9721 16.5175L19.6783 20.495H17.3346L16.5428 18.5813C16.4291 18.306 16.1157 18.1762 15.8435 18.2911C15.571 18.4062 15.4425 18.7225 15.5562 18.9978L16.1756 20.495H11.1699L11.1221 19.5344L12.5182 19.0147C12.7953 18.9115 12.9373 18.601 12.8352 18.3213C12.733 18.0413 12.4256 17.8979 12.1488 18.0011L10.6115 18.5732L8.78061 17.5647C8.52134 17.4218 8.19669 17.5183 8.05524 17.78C7.91379 18.0419 8.00937 18.3701 8.26865 18.513L10.0495 19.4941L10.099 20.495H5.68052L7.5213 16.838ZM4.41407 34.9198V32.9176H26.8261C27.1213 32.9176 27.3608 32.6757 27.3608 32.3774C27.3608 32.0791 27.1213 31.8372 26.8261 31.8372H4.41407V29.8261H31.5862V31.8372H28.9649C28.6696 31.8372 28.4301 32.0791 28.4301 32.3774C28.4301 32.6757 28.6696 32.9176 28.9649 32.9176H31.5862V34.9198H4.41407ZM31.5862 28.7459H4.41407V26.7435H31.5862V28.7459ZM34.931 24.7255C34.931 25.2427 34.5144 25.6633 34.0027 25.6633H1.9976C1.48564 25.6633 1.06925 25.2427 1.06925 24.7255V22.513C1.06925 21.9958 1.48591 21.5751 1.9976 21.5751H34.0027C34.5144 21.5751 34.931 21.9961 34.931 22.513V24.7255Z" fill="#F4C51F"/>
<path d="M10.8134 7.31565C10.3849 7.70715 9.85179 8.1941 9.85179 9.15164C9.85179 9.44991 10.091 9.69186 10.3863 9.69186C10.6815 9.69186 10.921 9.44991 10.921 9.15164C10.921 8.6952 11.1301 8.48294 11.5305 8.11697C11.9593 7.72546 12.4924 7.23851 12.4924 6.28098C12.4924 5.32345 11.9593 4.8365 11.5305 4.44499C11.1301 4.07902 10.921 3.86703 10.921 3.41033C10.921 2.95389 11.1301 2.74163 11.5305 2.37593C11.9593 1.98443 12.4926 1.49748 12.4926 0.539947C12.4926 0.241672 12.2531 0 11.9579 0C11.6626 0 11.4231 0.241672 11.4231 0.539947C11.4231 0.996655 11.2141 1.20864 10.8137 1.57462C10.3852 1.96584 9.85179 2.45279 9.85179 3.41033C9.85179 4.36786 10.3849 4.85481 10.8134 5.24631C11.2141 5.61229 11.4231 5.82455 11.4231 6.28098C11.4231 6.73769 11.2141 6.94967 10.8134 7.31565Z" fill="#F4C51F"/>
<path d="M17.6414 7.31565C17.213 7.70715 16.6796 8.1941 16.6796 9.15164C16.6796 9.44991 16.9191 9.69186 17.2143 9.69186C17.5096 9.69186 17.7491 9.44991 17.7491 9.15164C17.7491 8.6952 17.9581 8.48294 18.3586 8.11697C18.787 7.72546 19.3204 7.23851 19.3204 6.28098C19.3204 5.32345 18.7873 4.8365 18.3586 4.44499C17.9581 4.07902 17.7491 3.86703 17.7491 3.41033C17.7491 2.95389 17.9581 2.74163 18.3586 2.37593C18.7873 1.98443 19.3204 1.49748 19.3204 0.539947C19.3204 0.241672 19.0812 0 18.7859 0C18.4907 0 18.2512 0.241672 18.2512 0.539947C18.2512 0.996378 18.0422 1.20864 17.6414 1.57462C17.213 1.96584 16.6796 2.45279 16.6796 3.41033C16.6796 4.36786 17.213 4.85481 17.6414 5.24631C18.0422 5.61229 18.2512 5.82455 18.2512 6.28098C18.2512 6.73769 18.0422 6.94967 17.6414 7.31565Z" fill="#F4C51F"/>
<path d="M24.4698 7.31565C24.0413 7.70715 23.5079 8.1941 23.5079 9.15164C23.5079 9.44991 23.7471 9.69186 24.0424 9.69186C24.3376 9.69186 24.5772 9.44991 24.5772 9.15164C24.5772 8.6952 24.7862 8.48294 25.1869 8.11697C25.6154 7.72546 26.1488 7.23851 26.1488 6.28098C26.1488 5.32345 25.6154 4.8365 25.1869 4.44499C24.7862 4.07902 24.5772 3.86703 24.5772 3.41033C24.5772 2.95389 24.7862 2.74163 25.1869 2.37593C25.6154 1.98443 26.1488 1.49748 26.1488 0.539947C26.1488 0.241672 25.9093 0 25.614 0C25.3187 0 25.0792 0.241672 25.0792 0.539947C25.0792 0.996378 24.8702 1.20864 24.4698 1.57462C24.041 1.96584 23.5079 2.45279 23.5079 3.41033C23.5079 4.36786 24.041 4.85481 24.4698 5.24631C24.8702 5.61229 25.0792 5.82455 25.0792 6.28098C25.0792 6.73769 24.8702 6.94967 24.4698 7.31565Z" fill="#F4C51F"/>
</svg>
