<svg width="40" height="36" viewBox="0 0 40 36" fill="none" xmlns="http://www.w3.org/2000/svg">
<path d="M39.3329 29.4545H38.5922C40.4337 27.695 40.4738 24.8029 38.6817 22.9949C38.3974 22.708 38.0759 22.4591 37.7256 22.2545C39.1339 21.4288 39.9972 19.9377 39.9996 18.3272C39.9962 15.7981 37.9088 13.7486 35.3329 13.7454H29.333V9.16353C29.3328 8.80206 29.0343 8.50906 28.6661 8.50923C28.6323 8.50923 28.5984 8.51176 28.565 8.51684L20.6664 9.70942V9.09807C22.2173 8.78496 23.3311 7.44542 23.3331 5.89079C23.3331 3.03434 20.5884 0.306185 20.4711 0.191639C20.2108 -0.0638798 19.7888 -0.0638798 19.5284 0.191639C19.4111 0.306185 16.6665 3.03434 16.6665 5.89079C16.6685 7.44542 17.7822 8.78496 19.3331 9.09807V9.91168L11.2319 11.1357C10.907 11.1848 10.667 11.4589 10.6665 11.7817V19.074C10.1796 18.5584 9.61806 18.1159 8.9999 17.761C8.79365 17.6441 8.53949 17.6441 8.33324 17.761C6.3646 18.8841 5.03561 20.838 4.73328 23.0537C4.27254 22.9609 3.80362 22.9125 3.3333 22.909C3.03905 22.9103 2.74522 22.9291 2.45331 22.9653C2.21681 22.9933 2.01356 23.143 1.91998 23.3581C0.561494 26.4868 1.62023 30.1221 4.45795 32.0727H0V33.3818H1.58798L2.73664 35.638C2.84955 35.8599 3.08063 36.0001 3.3333 36H28.6663C29.0345 36 29.333 35.7069 29.333 35.3455V33.3818H33.5876L34.7363 35.638C34.8492 35.8599 35.0803 36.0001 35.3329 36H37.9996C38.3677 36 38.6662 35.7069 38.6662 35.3455V33.3818H39.3329C39.7011 33.3818 39.9996 33.0887 39.9996 32.7273V30.1091C39.9996 29.7476 39.7011 29.4545 39.3329 29.4545ZM38.6662 26.1818C38.6641 27.9883 37.1729 29.4524 35.3329 29.4545H23.3331C21.4922 29.4545 19.9998 27.9892 19.9998 26.1818C19.9998 24.3743 21.4922 22.909 23.3331 22.909H31.9996C33.1042 22.909 33.9996 23.7882 33.9996 24.8727C33.9996 25.9572 33.1042 26.8363 31.9996 26.8363H25.3331C24.9649 26.8363 24.6664 26.5433 24.6664 26.1818C24.6664 25.8203 24.9649 25.5272 25.3331 25.5272H29.9997V24.2181H25.3331C24.2285 24.2181 23.3331 25.0973 23.3331 26.1818C23.3331 27.2663 24.2285 28.1454 25.3331 28.1454H31.9996C33.8396 28.1433 35.3308 26.6792 35.3329 24.8727C35.3305 24.1622 35.0901 23.4722 34.6489 22.909H35.3329C37.1729 22.9112 38.6641 24.3752 38.6662 26.1818ZM33.333 15.0545C34.4375 15.0545 35.3329 15.9336 35.3329 17.0181C35.3329 18.1026 34.4375 18.9818 33.333 18.9818H26.6664C26.2982 18.9818 25.9997 18.6887 25.9997 18.3272C25.9997 17.9657 26.2982 17.6727 26.6664 17.6727H31.333V16.3636H26.6664C25.5618 16.3636 24.6664 17.2427 24.6664 18.3272C24.6664 19.4117 25.5618 20.2908 26.6664 20.2908H33.333C35.1729 20.2887 36.6641 18.8247 36.6663 17.0181C36.6656 16.3429 36.4503 15.6849 36.0503 15.1356C37.8456 15.5356 38.9708 17.2887 38.5635 19.0514C38.2207 20.5348 36.8822 21.5908 35.3329 21.5999H25.9997C24.1588 21.5999 22.6664 20.1347 22.6664 18.3272C22.6664 16.5197 24.1588 15.0545 25.9997 15.0545H33.333ZM17.9998 5.89079C17.9998 4.21711 19.2831 2.47667 19.9998 1.63623C20.7171 2.47601 21.9998 4.21318 21.9998 5.89079C21.9963 6.71994 21.4627 7.45761 20.6664 7.734V6.54534H19.3331V7.734C18.5369 7.45761 18.0033 6.71994 17.9998 5.89079ZM8.66657 19.0983C10.156 20.0825 11.1204 21.668 11.2965 23.4222C10.3022 23.8121 9.40673 24.4106 8.67257 25.1757C7.93308 24.4135 7.03334 23.8187 6.03593 23.4327C6.20901 21.6745 7.174 20.0845 8.66657 19.0983ZM12.0107 24.5511C12.6499 24.3307 13.3224 24.2181 13.9998 24.2181C14.1045 24.2181 14.2138 24.2221 14.3278 24.2293C15.4262 27.2988 13.7821 30.6613 10.6557 31.7397C10.0166 31.9601 9.34398 32.0727 8.66657 32.0727C8.5619 32.0727 8.45257 32.0688 8.33857 32.0616C7.24025 28.992 8.88432 25.6295 12.0107 24.5511ZM2.66664 26.1818C2.6658 25.5168 2.7803 24.8565 3.0053 24.2293C3.1193 24.2221 3.22863 24.2181 3.3333 24.2181C5.05961 24.2131 6.70268 24.9458 7.83458 26.2256C6.74134 27.8754 6.39601 29.8972 6.88126 31.807C4.37387 31.0397 2.66614 28.7605 2.66664 26.1818ZM13.5878 34.6909H3.74529L3.07863 33.3818H14.2545L13.5878 34.6909ZM19.9998 34.6909H15.0785L15.7452 33.3818H17.3331V32.0727H12.8699C15.7107 30.1248 16.7721 26.4884 15.4132 23.3587C15.3196 23.1437 15.1163 22.994 14.8798 22.966C14.1213 22.8703 13.3518 22.8968 12.6019 23.0445C12.4979 22.3165 12.2804 21.6085 11.9572 20.9454H11.9999V12.3433L27.9997 9.92673V13.7454H25.9997C23.4257 13.742 21.3363 15.788 21.3329 18.3153C21.3313 19.5699 21.8543 20.7701 22.7797 21.6353C20.2242 21.9313 18.397 24.2054 18.6985 26.7145C18.8236 27.7556 19.3091 28.7229 20.0738 29.4545H19.3331C18.965 29.4545 18.6665 29.7476 18.6665 30.1091V32.7273C18.6665 33.0887 18.965 33.3818 19.3331 33.3818H19.9998V34.6909ZM22.9211 34.6909H21.3331V33.3818H23.5877L22.9211 34.6909ZM27.9997 34.6909H24.4117L25.0784 33.3818H27.9997V34.6909ZM37.3329 34.6909H35.7449L35.0783 33.3818H37.3329V34.6909ZM38.6662 32.0727H19.9998V30.7636H38.6662V32.0727Z" fill="#F4C51F"/>
<path d="M14.6665 13.7454H13.3332V18.9818H14.6665V13.7454Z" fill="#F4C51F"/>
<path d="M14.6665 20.2908H13.3332V21.5999H14.6665V20.2908Z" fill="#F4C51F"/>
</svg>
