<svg width="36" height="36" viewBox="0 0 36 36" fill="none" xmlns="http://www.w3.org/2000/svg">
<path d="M35.4 0.000244141H0.6C0.44087 0.000244141 0.288258 0.0634582 0.175736 0.17598C0.0632141 0.288502 0 0.441114 0 0.600244V7.80024C0 7.95937 0.0632141 8.11199 0.175736 8.22451C0.288258 8.33703 0.44087 8.40024 0.6 8.40024H1.2V32.4002H0.6C0.44087 32.4002 0.288258 32.4635 0.175736 32.576C0.0632141 32.6885 0 32.8411 0 33.0002V35.4002C0 35.5594 0.0632141 35.712 0.175736 35.8245C0.288258 35.937 0.44087 36.0002 0.6 36.0002H35.4C35.5591 36.0002 35.7117 35.937 35.8243 35.8245C35.9368 35.712 36 35.5594 36 35.4002V33.0002C36 32.8411 35.9368 32.6885 35.8243 32.576C35.7117 32.4635 35.5591 32.4002 35.4 32.4002H34.8V8.40024H35.4C35.5591 8.40024 35.7117 8.33703 35.8243 8.22451C35.9368 8.11199 36 7.95937 36 7.80024V0.600244C36 0.441114 35.9368 0.288502 35.8243 0.17598C35.7117 0.0634582 35.5591 0.000244141 35.4 0.000244141ZM34.8 34.8002H1.2V33.6002H34.8V34.8002ZM18 10.8002C11.714 10.8002 6.6 15.9143 6.6 22.2002V32.4002H2.4V8.40024H33.6V32.4002H29.4V22.2002C29.4 15.9143 24.286 10.8002 18 10.8002ZM18 13.2002C15.6139 13.2029 13.3263 14.152 11.639 15.8393C9.95178 17.5265 9.0027 19.8141 9 22.2002V32.4002H7.8V22.2002C7.8 16.576 12.3758 12.0002 18 12.0002C23.6243 12.0002 28.2 16.576 28.2 22.2002V32.4002H27V22.2002C26.9973 19.8141 26.0482 17.5265 24.361 15.8393C22.6737 14.152 20.3861 13.2029 18 13.2002ZM21.6 28.8002C21.2592 28.8002 20.9224 28.8729 20.612 29.0134C20.3016 29.154 20.0247 29.3592 19.8 29.6153C19.5752 29.3593 19.2984 29.1541 18.988 29.0135C18.6776 28.873 18.3407 28.8003 18 28.8003C17.6593 28.8003 17.3224 28.873 17.012 29.0135C16.7016 29.1541 16.4248 29.3593 16.2 29.6153C15.807 29.1681 15.2616 28.883 14.67 28.8156C14.0784 28.7482 13.4829 28.9032 12.9993 29.2506C12.5157 29.598 12.1786 30.1128 12.0535 30.695C11.9285 31.2771 12.0245 31.885 12.3229 32.4002H10.2V22.2002C10.2 20.1316 11.0218 18.1476 12.4846 16.6848C13.9474 15.222 15.9313 14.4002 18 14.4002C20.0687 14.4002 22.0526 15.222 23.5154 16.6848C24.9782 18.1476 25.8 20.1316 25.8 22.2002V32.4002H23.6775C23.8887 32.0356 24 31.6217 24.0004 31.2002C24.0007 30.7788 23.8899 30.3648 23.6793 29.9998C23.4687 29.6348 23.1656 29.3317 22.8005 29.1211C22.4355 28.9105 22.0214 28.7999 21.6 28.8002ZM22.8 31.2002C22.8 31.4376 22.7296 31.6696 22.5978 31.8669C22.4659 32.0643 22.2785 32.2181 22.0592 32.3089C21.8399 32.3997 21.5987 32.4235 21.3659 32.3772C21.1331 32.3309 20.9193 32.2166 20.7515 32.0488C20.5836 31.881 20.4694 31.6671 20.4231 31.4344C20.3768 31.2016 20.4005 30.9603 20.4913 30.741C20.5822 30.5218 20.736 30.3343 20.9333 30.2025C21.1307 30.0706 21.3627 30.0002 21.6 30.0002C21.9181 30.0006 22.2232 30.1272 22.4481 30.3521C22.6731 30.5771 22.7996 30.8821 22.8 31.2002ZM19.2 31.2002C19.2 31.4376 19.1296 31.6696 18.9978 31.8669C18.8659 32.0643 18.6785 32.2181 18.4592 32.3089C18.2399 32.3997 17.9987 32.4235 17.7659 32.3772C17.5331 32.3309 17.3193 32.2166 17.1515 32.0488C16.9837 31.881 16.8694 31.6671 16.8231 31.4344C16.7768 31.2016 16.8005 30.9603 16.8913 30.741C16.9822 30.5218 17.136 30.3343 17.3333 30.2025C17.5307 30.0706 17.7627 30.0002 18 30.0002C18.3181 30.0006 18.6232 30.1272 18.8481 30.3521C19.0731 30.5771 19.1996 30.8821 19.2 31.2002ZM15.6 31.2002C15.6 31.4376 15.5296 31.6696 15.3978 31.8669C15.2659 32.0643 15.0785 32.2181 14.8592 32.3089C14.6399 32.3997 14.3987 32.4235 14.1659 32.3772C13.9331 32.3309 13.7193 32.2166 13.5515 32.0488C13.3836 31.881 13.2694 31.6671 13.2231 31.4344C13.1768 31.2016 13.2005 30.9603 13.2913 30.741C13.3822 30.5218 13.536 30.3343 13.7333 30.2025C13.9307 30.0706 14.1627 30.0002 14.4 30.0002C14.7181 30.0006 15.0232 30.1272 15.2481 30.3521C15.4731 30.5771 15.5996 30.8821 15.6 31.2002ZM34.8 7.20024H1.2V3.60024H34.8V7.20024ZM34.8 2.40024H1.2V1.20024H34.8V2.40024Z" fill="#F4C51F"/>
<path d="M18.4087 16.961C18.2976 16.8576 18.1516 16.8002 17.9999 16.8002C17.8483 16.8002 17.7022 16.8576 17.5912 16.961C17.4365 17.1049 13.8 20.521 13.8 23.4002C13.8 26.0694 15.3308 27.6002 18 27.6002C20.6692 27.6002 22.2 26.0694 22.2 23.4002C22.2 20.521 18.5635 17.1049 18.4087 16.961ZM18 26.4002C17.7554 26.4002 17.4 25.9328 17.4 25.2002C17.4 24.8131 17.683 24.1086 18 23.4633C18.3221 24.1226 18.6 24.8269 18.6 25.2002C18.6 25.9328 18.2446 26.4002 18 26.4002ZM21 23.4002C21 24.7148 20.5595 25.6011 19.6875 26.0517C19.7631 25.7742 19.801 25.4878 19.8 25.2002C19.8 24.0729 18.6464 22.112 18.5149 21.8922C18.4616 21.8032 18.3862 21.7295 18.2959 21.6783C18.2057 21.6272 18.1037 21.6003 18 21.6003C17.8963 21.6003 17.7943 21.6272 17.7041 21.6783C17.6138 21.7295 17.5384 21.8032 17.4851 21.8922C17.3536 22.112 16.2 24.0729 16.2 25.2002C16.199 25.4878 16.2369 25.7742 16.3125 26.0517C15.4406 25.6011 15 24.7148 15 23.4002C15 22.4532 15.5757 21.2034 16.665 19.7859C17.0809 19.248 17.5266 18.7338 18 18.2457C18.4734 18.7338 18.9191 19.248 19.335 19.7859C20.4243 21.2034 21 22.4532 21 23.4002Z" fill="#F4C51F"/>
</svg>
