<svg width="37" height="36" viewBox="0 0 37 36" fill="none" xmlns="http://www.w3.org/2000/svg">
<path d="M34.9472 20.4952H33.6952L27.5831 15.3191C26.9592 14.7908 26.1697 14.548 25.3908 14.6043L22.9321 10.9066C22.6326 10.4562 22.1722 10.1496 21.6355 10.0434C21.0992 9.93683 20.5538 10.0439 20.1004 10.3447L17.8613 11.8289C17.6163 11.9915 17.3041 12.0295 17.026 11.9307L15.4257 11.3624C14.7813 11.1338 14.0693 11.2384 13.5214 11.6421C13.2783 11.8211 13.2292 12.1596 13.4113 12.3982C13.5934 12.6371 13.9375 12.6854 14.1805 12.5064C14.4315 12.3216 14.7575 12.2739 15.0525 12.3785L16.6526 12.9468C17.2592 13.1621 17.9406 13.0791 18.4759 12.7245L20.715 11.2404C20.9228 11.1025 21.1726 11.0536 21.4182 11.1022C21.664 11.151 21.8752 11.2914 22.0124 11.4978L22.4118 12.0988L20.2523 12.7353C19.9616 12.8211 19.7967 13.1221 19.8839 13.4079C19.9712 13.6937 20.2774 13.8557 20.5679 13.77L22.0731 13.3263L21.6576 14.0072C21.5014 14.2631 21.5859 14.5946 21.8461 14.7481C21.9345 14.8005 22.0322 14.8252 22.1281 14.8252C22.315 14.8252 22.4971 14.7317 22.6001 14.5627L23.294 13.4257L24.2766 14.9035C24.1905 14.9451 24.1059 14.9906 24.0229 15.0408L19.6132 17.7133L18.3494 15.9057C17.6073 14.8444 16.1834 14.5139 15.0367 15.1368L13.7221 15.851C13.3825 16.0352 12.9754 16.0766 12.6051 15.9639L12.0433 15.7933L13.0824 14.1357C13.2416 13.8818 13.1612 13.5491 12.9029 13.3927C12.6446 13.2359 12.3059 13.315 12.1469 13.5691L10.9591 15.4639L9.75622 15.0985C8.57512 14.7397 7.31102 15.2653 6.75068 16.3488L4.60528 20.4952H2.05309C0.921112 20.4952 0 21.4006 0 22.5132V24.7257C0 25.8386 0.921112 26.7437 2.05309 26.7437H3.43744V35.46C3.43744 35.7583 3.6836 36.0002 3.98706 36.0002H33.0129C33.3164 36.0002 33.5626 35.7583 33.5626 35.46V26.7437H34.9469C36.0792 26.7437 37 25.8386 37 24.7257V22.5132C37.0003 21.4006 36.0792 20.4952 34.9472 20.4952ZM22.1081 17.4703V18.6021C22.1081 18.9003 22.3542 19.1423 22.6577 19.1423C22.9612 19.1423 23.2073 18.9003 23.2073 18.6021V17.2955L25.4606 18.1662C25.7428 18.2755 26.0618 18.1387 26.1731 17.8612C26.284 17.5835 26.1451 17.27 25.8625 17.1609L23.8817 16.3954L24.5996 15.9603C25.3169 15.5258 26.2273 15.5968 26.8655 16.1373L32.0114 20.4952H21.5585L20.2365 18.6046L22.1081 17.4703ZM7.73022 16.8382C8.04752 16.225 8.76312 15.9276 9.43187 16.1307L12.2805 16.9961C12.9348 17.195 13.6541 17.1221 14.2537 16.7966L15.5683 16.0824C16.2175 15.7297 17.0235 15.917 17.4435 16.5177L20.2249 20.4952H17.8162L17.0023 18.5815C16.8854 18.3063 16.5634 18.1764 16.2836 18.2913C16.0036 18.4065 15.8715 18.7228 15.9883 18.998L16.6249 20.4952H11.4802L11.431 19.5346L12.8659 19.0149C13.1508 18.9117 13.2967 18.6012 13.1917 18.3215C13.0867 18.0416 12.7708 17.8981 12.4862 18.0014L10.9063 18.5735L9.02452 17.5649C8.75804 17.422 8.42437 17.5186 8.27899 17.7802C8.13361 18.0421 8.23185 18.3704 8.49833 18.5133L10.3287 19.4944L10.3795 20.4952H5.83832L7.73022 16.8382ZM4.53668 34.9201V32.9179H27.5712C27.8747 32.9179 28.1209 32.6759 28.1209 32.3777C28.1209 32.0794 27.8747 31.8374 27.5712 31.8374H4.53668V29.8264H32.4636V31.8374H29.7694C29.466 31.8374 29.2198 32.0794 29.2198 32.3777C29.2198 32.6759 29.466 32.9179 29.7694 32.9179H32.4636V34.9201H4.53668ZM32.4636 28.7462H4.53668V26.7437H32.4636V28.7462ZM35.9013 24.7257C35.9013 25.2429 35.4731 25.6636 34.9472 25.6636H2.05309C1.52691 25.6636 1.09895 25.2429 1.09895 24.7257V22.5132C1.09895 21.996 1.52719 21.5754 2.05309 21.5754H34.9472C35.4731 21.5754 35.9013 21.9963 35.9013 22.5132V24.7257Z" fill="#F4C51F"/>
<path d="M11.1137 7.31589C10.6734 7.7074 10.1255 8.19435 10.1255 9.15188C10.1255 9.45015 10.3713 9.6921 10.6748 9.6921C10.9782 9.6921 11.2244 9.45015 11.2244 9.15188C11.2244 8.69545 11.4392 8.48319 11.8508 8.11721C12.2915 7.72571 12.8394 7.23876 12.8394 6.28122C12.8394 5.32369 12.2915 4.83674 11.8508 4.44524C11.4392 4.07926 11.2244 3.86728 11.2244 3.41057C11.2244 2.95414 11.4392 2.74188 11.8508 2.37618C12.2915 1.98468 12.8397 1.49772 12.8397 0.540191C12.8397 0.241916 12.5935 0.000244141 12.29 0.000244141C11.9866 0.000244141 11.7404 0.241916 11.7404 0.540191C11.7404 0.996899 11.5256 1.20888 11.114 1.57486C10.6737 1.96609 10.1255 2.45304 10.1255 3.41057C10.1255 4.3681 10.6734 4.85505 11.1137 5.24656C11.5256 5.61253 11.7404 5.82479 11.7404 6.28122C11.7404 6.73793 11.5256 6.94991 11.1137 7.31589Z" fill="#F4C51F"/>
<path d="M18.1315 7.31589C17.6911 7.7074 17.1429 8.19435 17.1429 9.15188C17.1429 9.45015 17.389 9.6921 17.6925 9.6921C17.996 9.6921 18.2421 9.45015 18.2421 9.15188C18.2421 8.69545 18.457 8.48319 18.8685 8.11721C19.3089 7.72571 19.8571 7.23876 19.8571 6.28122C19.8571 5.32369 19.3092 4.83674 18.8685 4.44524C18.457 4.07926 18.2421 3.86728 18.2421 3.41057C18.2421 2.95414 18.457 2.74188 18.8685 2.37618C19.3092 1.98468 19.8571 1.49772 19.8571 0.540191C19.8571 0.241916 19.6112 0.000244141 19.3078 0.000244141C19.0043 0.000244141 18.7582 0.241916 18.7582 0.540191C18.7582 0.996622 18.5433 1.20888 18.1315 1.57486C17.6911 1.96609 17.1429 2.45304 17.1429 3.41057C17.1429 4.3681 17.6911 4.85505 18.1315 5.24656C18.5433 5.61253 18.7582 5.82479 18.7582 6.28122C18.7582 6.73793 18.5433 6.94991 18.1315 7.31589Z" fill="#F4C51F"/>
<path d="M25.1495 7.31589C24.7091 7.7074 24.1609 8.19435 24.1609 9.15188C24.1609 9.45015 24.4068 9.6921 24.7102 9.6921C25.0137 9.6921 25.2599 9.45015 25.2599 9.15188C25.2599 8.69545 25.4747 8.48319 25.8865 8.11721C26.3269 7.72571 26.8751 7.23876 26.8751 6.28122C26.8751 5.32369 26.3269 4.83674 25.8865 4.44524C25.4747 4.07926 25.2599 3.86728 25.2599 3.41057C25.2599 2.95414 25.4747 2.74188 25.8865 2.37618C26.3269 1.98468 26.8751 1.49772 26.8751 0.540191C26.8751 0.241916 26.629 0.000244141 26.3255 0.000244141C26.022 0.000244141 25.7759 0.241916 25.7759 0.540191C25.7759 0.996622 25.5611 1.20888 25.1495 1.57486C24.7088 1.96609 24.1609 2.45304 24.1609 3.41057C24.1609 4.3681 24.7088 4.85505 25.1495 5.24656C25.5611 5.61253 25.7759 5.82479 25.7759 6.28122C25.7759 6.73793 25.5611 6.94991 25.1495 7.31589Z" fill="#F4C51F"/>
</svg>
