<svg width="31" height="36" viewBox="0 0 31 36" fill="none" xmlns="http://www.w3.org/2000/svg">
<path d="M27.9167 27.7859H13.4166V23.6431H27.9166L27.9167 27.7859ZM3.08338 27.7859V23.6431H9.83338V27.7859H3.08338ZM17.5834 20.0716H3.08338V15.9288H17.5834V20.0716ZM3.08338 31.3573H17.5834V35.5001H3.08338V31.3573ZM27.9168 35.5002H21.1668V31.3574H27.9168V35.5002ZM27.9168 20.0716H21.1668V15.9288H27.9168V20.0716ZM0.500152 12.3574V10.7859H6.45854C6.95896 10.7859 7.41514 10.6177 7.7477 10.2867C8.08048 9.95545 8.25015 9.50023 8.25015 9.00021C8.25015 8.50018 8.08048 8.04496 7.7477 7.71372C7.41514 7.38268 6.95895 7.21454 6.45854 7.21454H0.5V5.64306H3.875C4.37542 5.64306 4.8316 5.47492 5.16417 5.14388C5.49694 4.81264 5.66662 4.35741 5.66662 3.85739C5.66662 3.35737 5.49694 2.90214 5.16417 2.5709C4.8316 2.23987 4.37542 2.07173 3.875 2.07173H0.5V0.500244H30.5V2.07173H24.5416C24.0412 2.07173 23.585 2.23987 23.2524 2.5709C22.9197 2.90214 22.75 3.35737 22.75 3.85739C22.75 4.35741 22.9197 4.81264 23.2524 5.14388C23.585 5.47492 24.0412 5.64306 24.5416 5.64306H30.5V7.21454H27.125C26.6246 7.21454 26.1684 7.38268 25.8358 7.71372C25.5031 8.04496 25.3334 8.50018 25.3334 9.00021C25.3334 9.50023 25.5031 9.95545 25.8358 10.2867C26.1684 10.6177 26.6246 10.7859 27.125 10.7859H30.5V12.3574H0.500152Z" stroke="#F4C51F"/>
</svg>
