<svg width="28" height="36" viewBox="0 0 28 36" fill="none" xmlns="http://www.w3.org/2000/svg">
<path d="M27.518 19.1042H24.9288V1.33618C24.9284 0.981983 24.7907 0.642399 24.5459 0.391942C24.301 0.141486 23.9691 0.000616394 23.6228 0.000244141H21.7897C21.4435 0.000616394 21.1115 0.141486 20.8666 0.391942C20.6218 0.642399 20.4841 0.981983 20.4837 1.33618V2.77787H7.51546V1.33618C7.5151 0.981983 7.37738 0.642399 7.13254 0.391942C6.88769 0.141486 6.55571 0.000616394 6.20945 0.000244141H4.37637C4.0301 0.000616394 3.69812 0.141486 3.45328 0.391942C3.20843 0.642399 3.07072 0.981983 3.07036 1.33618V19.1042H0.481161C0.353549 19.1042 0.231164 19.156 0.140929 19.2483C0.0506935 19.3406 1.01468e-08 19.4658 1.01468e-08 19.5963V21.4526C-1.80374e-05 21.5425 0.0240393 21.6307 0.0695622 21.7077L1.16936 23.5639C1.21232 23.6364 1.27286 23.6964 1.34512 23.7379C1.41737 23.7794 1.4989 23.8012 1.58178 23.801H4.16273L10.5902 27.6887L2.3005 32.6995C1.97321 32.8974 1.7186 33.1999 1.57584 33.5604C1.43309 33.9209 1.41012 34.3194 1.51046 34.6945C1.6108 35.0697 1.8289 35.4007 2.13117 35.6366C2.43344 35.8725 2.80314 36.0003 3.18336 36.0002C3.49364 36.0001 3.79822 35.915 4.0654 35.7536L13.9996 29.7489L23.9335 35.7533C24.2007 35.9149 24.5054 36.0002 24.8158 36.0002C25.196 36.0002 25.5656 35.8723 25.8678 35.6364C26.17 35.4004 26.388 35.0694 26.4882 34.6943C26.5885 34.3191 26.5655 33.9207 26.4227 33.5603C26.28 33.1999 26.0254 32.8974 25.6981 32.6995L17.409 27.6887L23.8373 23.8033H26.4179C26.5008 23.8035 26.5824 23.7817 26.6546 23.7402C26.7269 23.6987 26.7874 23.6387 26.8304 23.5662L27.9302 21.7099C27.9758 21.633 28 21.5448 28 21.4548V19.5986C28.0003 19.5337 27.988 19.4694 27.9639 19.4093C27.9398 19.3493 27.9044 19.2948 27.8596 19.2488C27.8148 19.2029 27.7615 19.1664 27.7029 19.1416C27.6443 19.1168 27.5815 19.104 27.518 19.1042ZM21.446 1.33618C21.4461 1.24296 21.4823 1.15359 21.5468 1.08767C21.6112 1.02176 21.6986 0.984694 21.7897 0.984619H23.6228C23.7139 0.984694 23.8013 1.02176 23.8657 1.08767C23.9302 1.15359 23.9664 1.24296 23.9665 1.33618V19.1042H21.446V1.33618ZM7.51546 19.1042V13.219H20.4837V19.1042H7.51546ZM20.4837 12.2346H7.51546V10.3719H20.4837V12.2346ZM20.4837 9.38724H7.51546V6.60962H20.4837V9.38724ZM20.4837 3.76224V5.62524H7.51546V3.76224H20.4837ZM4.03268 1.33618C4.03275 1.24296 4.06898 1.15359 4.13342 1.08767C4.19786 1.02176 4.28524 0.984694 4.37637 0.984619H6.20945C6.30058 0.984694 6.38796 1.02176 6.45239 1.08767C6.51683 1.15359 6.55306 1.24296 6.55314 1.33618V19.1042H4.03268V1.33618ZM6.05355 23.8033H9.08817L13.0538 26.2001L11.5369 27.117L6.05355 23.8033ZM13.9996 25.6283L10.9798 23.8033H17.0191L13.9996 25.6283ZM25.2084 33.5469C25.354 33.635 25.4673 33.7696 25.5308 33.93C25.5944 34.0904 25.6046 34.2677 25.56 34.4346C25.5154 34.6015 25.4184 34.7488 25.2839 34.8539C25.1495 34.9589 24.985 35.0158 24.8158 35.0159C24.6777 35.0159 24.5422 34.9779 24.4235 34.9059L14.9457 29.1771L16.4626 28.2602L25.2084 33.5469ZM3.57571 34.9059C3.45693 34.9779 3.32142 35.0159 3.18336 35.0159C3.01419 35.0158 2.84972 34.9589 2.71526 34.8539C2.58081 34.7488 2.48381 34.6015 2.43919 34.4346C2.39458 34.2677 2.40481 34.0904 2.46833 33.93C2.53185 33.7696 2.64512 33.635 2.79073 33.5469L18.9107 23.8033H21.9456L3.57571 34.9059ZM27.0368 21.3162L26.1463 22.8189H1.85288L0.962322 21.3162V20.0885H27.0366L27.0368 21.3162Z" fill="#F4C51F"/>
</svg>
