<svg width="35" height="36" viewBox="0 0 35 36" fill="none" xmlns="http://www.w3.org/2000/svg">
<path d="M2.97794 36.0002H28.8138L31.792 17.5278H0L2.97794 36.0002ZM27.8893 34.9456H3.90243L1.26467 18.5825H30.527L27.8893 34.9456Z" fill="#F4C51F"/>
<path d="M13.9795 4.33316C13.9795 5.36369 14.8393 6.20222 15.8958 6.20222C16.9524 6.20222 17.8121 5.36369 17.8121 4.33316C17.8121 3.30237 16.9524 2.46411 15.8958 2.46411C14.8393 2.46411 13.9795 3.30237 13.9795 4.33316ZM16.7308 4.33316C16.7308 4.78223 16.3563 5.14753 15.8958 5.14753C15.4354 5.14753 15.0609 4.78223 15.0609 4.33316C15.0609 3.8841 15.4354 3.5188 15.8958 3.5188C16.3563 3.5188 16.7308 3.8841 16.7308 4.33316Z" fill="#F4C51F"/>
<path d="M3.42878 13.1209L4.19333 12.3752L3.43131 11.6317C3.02384 11.2345 3.02384 10.5913 3.43131 10.1938L7.15015 6.56669C7.98002 5.75727 7.98031 4.44687 7.15015 3.63745L6.38785 2.89395L5.6233 3.63965L6.3856 4.38315C6.79279 4.78031 6.79279 5.42356 6.3856 5.82072L2.66648 9.44814C1.8366 10.2576 1.8366 11.568 2.66648 12.3774L3.42878 13.1209Z" fill="#F4C51F"/>
<path d="M9.30355 8.66701L5.58472 12.2942C4.75484 13.1036 4.75456 14.414 5.58472 15.2237L6.34702 15.9669L7.11156 15.2212L6.34955 14.478C5.94207 14.0805 5.94179 13.4376 6.34955 13.0401L10.0684 9.41271C10.8963 8.60521 10.8963 7.29097 10.0684 6.48347L9.30609 5.73997L8.54125 6.48594L9.30355 7.22917C9.7099 7.6255 9.7099 8.27067 9.30355 8.66701Z" fill="#F4C51F"/>
<path d="M10.1472 16.23L10.8048 17.0675C12.6878 15.6604 13.7678 13.5282 13.7678 11.2175V10.9036C13.7678 9.12349 13.4206 7.28905 12.7357 5.4513C12.6022 5.0937 12.5346 4.71741 12.5346 4.33289C12.5346 2.48526 14.1049 0.980403 16.0347 1.05758C17.755 1.12487 19.1686 2.49103 19.2528 4.16755C19.2756 4.62485 19.2044 5.07035 19.0405 5.49223C18.366 7.22917 18.0239 9.04961 18.0239 10.903V11.2175C18.0239 13.5282 19.1038 15.6604 20.9869 17.0675L21.6445 16.23C20.0309 15.0245 19.1053 13.1975 19.1053 11.2175V10.903C19.1053 9.1776 19.4237 7.48296 20.0517 5.86576C20.2685 5.30766 20.3632 4.71879 20.3328 4.11591C20.2215 1.89886 18.3525 0.0924299 16.078 0.00371504C13.54 -0.093789 11.4533 1.87552 11.4533 4.33289C11.4533 4.84074 11.5428 5.33814 11.7194 5.81166C12.3609 7.53349 12.6864 9.24654 12.6864 10.9036V11.2175C12.6864 13.1975 11.7608 15.0243 10.1472 16.23Z" fill="#F4C51F"/>
<path d="M34.0138 4.06345C33.0707 3.53226 31.8663 3.84674 31.3217 4.76712L24.4444 16.3852L25.381 16.9125L32.2583 5.29447C32.5038 4.87919 33.0473 4.73691 33.4731 4.97696C33.8989 5.21647 34.0445 5.74656 33.7987 6.16184L27.747 16.3852L28.6836 16.9125L34.7353 6.68919C35.2799 5.76936 34.9574 4.59464 34.0138 4.06345Z" fill="#F4C51F"/>
<path d="M5.82211 19.5144L6.89811 19.4097L8.39088 34.0156L7.31488 34.1202L5.82211 19.5144Z" fill="#F4C51F"/>
<path d="M23.4011 34.0131L24.8938 19.4073L25.9698 19.5119L24.4771 34.1177L23.4011 34.0131Z" fill="#F4C51F"/>
<path d="M11.8808 19.4798L12.9613 19.4413L13.5053 34.046L12.4245 34.0845L11.8808 19.4798Z" fill="#F4C51F"/>
<path d="M18.2841 34.0471L18.8282 19.4424L19.9087 19.4809L19.3649 34.0856L18.2841 34.0471Z" fill="#F4C51F"/>
<path d="M27.3446 33.7969L26.2765 33.6332L27.288 27.3589L28.3561 27.5229L27.3446 33.7969ZM28.4682 26.8283L27.3998 26.6643L27.5679 25.6225L28.6361 25.7862L28.4682 26.8283ZM28.7481 25.0916L27.6797 24.9279L27.8478 23.8859L28.916 24.0498L28.7481 25.0916Z" fill="#F4C51F"/>
<path d="M18.0343 16.6096C17.1656 15.4566 16.5813 14.1042 16.345 12.699L17.4123 12.5282C17.6209 13.7702 18.1374 14.9652 18.9056 15.9847L18.0343 16.6096ZM16.2523 11.9582C16.2321 11.7135 16.2217 11.4644 16.2217 11.2175V10.8607L17.303 10.8635V11.2175C17.303 11.4361 17.3123 11.6569 17.33 11.8734L16.2523 11.9582ZM17.3196 10.1826L16.2394 10.1353C16.256 9.77388 16.2847 9.40886 16.325 9.05043L17.3999 9.16496C17.3621 9.50114 17.3351 9.84365 17.3196 10.1826Z" fill="#F4C51F"/>
<path d="M27.3565 16.3651L26.4198 15.8378L28.7574 11.8888L29.694 12.4161L27.3565 16.3651ZM30.0545 11.8069L29.1179 11.2796L29.6585 10.3663L30.5952 10.8937L30.0545 11.8069ZM30.9556 10.2847L30.019 9.7574L30.5597 8.84416L31.4963 9.37151L30.9556 10.2847Z" fill="#F4C51F"/>
</svg>
