<svg width="23" height="36" viewBox="0 0 23 36" fill="none" xmlns="http://www.w3.org/2000/svg">
<path d="M9.95329 18.6648H7.86957C7.53293 18.6648 7.26011 18.9429 7.26011 19.2859C7.26011 19.6289 7.53293 19.9069 7.86957 19.9069H9.95329C10.29 19.9069 10.5627 19.6289 10.5627 19.2859C10.5627 18.9429 10.2899 18.6648 9.95329 18.6648Z" fill="#F4C51F"/>
<path d="M22.3907 1.80342H13.4002V0.62133C13.4002 0.428393 13.3121 0.246354 13.162 0.128862C13.0117 0.0112998 12.8165 -0.0285673 12.6336 0.0212841L0.452416 3.33152C0.185603 3.40401 0 3.65024 0 3.93163V5.93772C0 6.2807 0.272816 6.55878 0.609454 6.55878C0.946092 6.55878 1.21891 6.2807 1.21891 5.93772V4.40884L12.1812 1.42978V34.6215L1.21891 32.3872V8.03105C1.21891 7.68807 0.946092 7.40999 0.609454 7.40999C0.272816 7.40999 0 7.68807 0 8.03105V32.8965C0 33.1925 0.204992 33.4474 0.489951 33.5054L12.6712 35.9882C12.7108 35.9962 12.7508 36.0002 12.7907 36.0002C12.9304 36.0002 13.0671 35.9513 13.177 35.8595C13.3182 35.7415 13.4001 35.5652 13.4001 35.3792V34.1972H19.0168C19.3536 34.1972 19.6263 33.9191 19.6263 33.5762C19.6263 33.2332 19.3535 32.9551 19.0168 32.9551H13.4001V31.183H19.4326C19.7693 31.183 20.0421 30.9049 20.0421 30.5619V5.43878C20.0421 5.0958 19.7693 4.81771 19.4326 4.81771H13.4001V3.04556H21.7811V32.9548H20.9116C20.5749 32.9548 20.3021 33.2329 20.3021 33.5759C20.3021 33.9189 20.5749 34.1969 20.9116 34.1969H22.3905C22.7273 34.1969 23 33.9189 23 33.5759V2.42449C23.0001 2.08151 22.7273 1.80342 22.3907 1.80342ZM18.8232 6.05985V29.9407H13.4003V6.05985H18.8232Z" fill="#F4C51F"/>
</svg>
