<svg width="48" height="36" viewBox="0 0 48 36" fill="none" xmlns="http://www.w3.org/2000/svg">
<path d="M0.0060914 15.2959C0.00571756 15.2928 0.00534372 15.2897 0.00487451 15.2866C0.00543528 15.2914 0.0060914 15.2959 0.0060914 15.2959Z" fill="#F4C51F"/>
<path d="M0.00487451 15.2866C0.00421839 15.2817 0.00365381 15.2772 0.00365381 15.2772C0.0039361 15.2804 0.00440531 15.2835 0.00487451 15.2866Z" fill="#F4C51F"/>
<path d="M5.12776 15.9184L35.8875 15.9184C36.2759 15.9184 36.5907 15.6006 36.5907 15.2083C36.5907 14.816 36.276 14.4981 35.8875 14.4981L27.7275 14.4981C36.0764 12.8915 44.1645 12.3002 46.5936 12.1496L46.5936 14.4981L38.7003 14.4981C38.3119 14.4981 37.997 14.816 37.997 15.2083C37.997 15.6005 38.3118 15.9184 38.7003 15.9184L47.2968 15.9184C47.6852 15.9184 48 15.6006 48 15.2083L48 0.710143C48 0.317912 47.6853 -1.37568e-08 47.2968 -3.07387e-08L14.4613 -1.46602e-06C14.0729 -1.483e-06 13.7581 0.317816 13.7581 0.710141C13.7581 1.10247 14.0728 1.42028 14.4613 1.42028L36.9612 1.42028C31.9363 2.84104 21.1015 4.6297 1.40653 2.5289L1.40653 1.42028L11.6486 1.42028C12.0369 1.42028 12.3518 1.10247 12.3518 0.710141C12.3518 0.317816 12.037 -1.57199e-06 11.6486 -1.58897e-06L0.703407 -2.0674e-06C0.314999 -2.08438e-06 0.000186906 0.317815 0.000186889 0.710141L0.000186782 3.16624L9.5229e-05 3.16795L0.000186782 3.16994L0.00018666 5.95768L0.0060914 15.2959C0.00796823 15.3112 0.0101235 15.3265 0.0130303 15.3418C0.0149987 15.3522 0.0174363 15.3623 0.0198739 15.3725C0.0224069 15.3831 0.0249398 15.3937 0.0279382 15.4043C0.0314057 15.4165 0.0353387 15.4285 0.0393708 15.4405C0.0409654 15.4452 0.0420907 15.4499 0.0438722 15.4545C0.0451844 15.4581 0.0468705 15.4613 0.0482781 15.4649C0.0538094 15.4794 0.0599053 15.4936 0.0663751 15.5076C0.0701249 15.5157 0.0738747 15.5237 0.0778115 15.5317C0.0839036 15.5436 0.0903733 15.5554 0.0971215 15.5669C0.102557 15.5763 0.107997 15.5856 0.113811 15.5946C0.119811 15.604 0.126186 15.613 0.13256 15.622C0.139777 15.6322 0.147094 15.6424 0.154876 15.6521C0.160877 15.6597 0.167156 15.6669 0.173438 15.6742C0.182159 15.6843 0.190872 15.6943 0.200153 15.7039C0.206714 15.7107 0.213561 15.7171 0.220405 15.7236C0.229873 15.7326 0.239249 15.7416 0.249091 15.75C0.25706 15.7568 0.265312 15.7632 0.273654 15.7697C0.28284 15.7769 0.29203 15.7841 0.301498 15.7907C0.311435 15.7977 0.321746 15.8042 0.331966 15.8107C0.340404 15.816 0.348747 15.8214 0.357372 15.8263C0.36909 15.833 0.381091 15.8391 0.393279 15.8451C0.401248 15.849 0.40903 15.8531 0.417094 15.8567C0.429752 15.8624 0.442592 15.8674 0.455623 15.8724C0.463966 15.8755 0.472312 15.8788 0.48075 15.8817C0.493125 15.8859 0.505687 15.8895 0.518249 15.8929C0.528186 15.8956 0.538123 15.8984 0.548156 15.9006C0.559314 15.9032 0.570655 15.9053 0.582 15.9073C0.594188 15.9094 0.606376 15.9114 0.618655 15.9129C0.62831 15.9141 0.638061 15.9149 0.647811 15.9158C0.662063 15.9169 0.676315 15.9177 0.690658 15.9179C0.694877 15.918 0.699001 15.9186 0.703311 15.9186C0.705467 15.9184 5.1256 15.9184 5.12776 15.9184ZM1.40663 5.34354L1.40663 3.95676C10.0796 4.87367 22.2176 5.55949 32.3086 3.89163C37.7556 2.99138 40.3783 1.77332 41.0557 1.4201L46.5936 1.4201L46.5936 2.11916C45.5062 2.94632 42.5261 4.5142 37.4457 5.61572C33.3989 6.49315 28.6474 6.96481 23.3234 7.01755C16.8266 7.08173 9.45555 6.51843 1.40663 5.34354ZM1.40663 10.5417C4.08226 9.9792 8.12514 9.50148 9.76868 10.206C9.33264 10.5637 8.16667 11.3194 5.08107 12.667C3.67097 13.2828 2.28704 13.8355 1.40663 14.1788L1.40663 10.5417ZM4.40382 14.4981C4.88926 14.2951 5.39523 14.0789 5.90139 13.8555C10.7913 11.6975 11.2977 10.8574 11.3886 10.2395C11.4432 9.86881 11.2975 9.52108 10.9895 9.28515C9.01089 7.7701 3.59447 8.65501 1.40663 9.09363L1.40663 6.77906C9.52221 7.95509 16.9565 8.51243 23.5153 8.43603C28.9537 8.3727 33.8101 7.87566 37.9494 6.95894C42.5182 5.94698 45.2147 4.64428 46.5937 3.81031L46.5937 7.61304C44.5028 7.87027 37.4047 8.75783 29.579 9.89684C17.1945 11.6992 8.93074 13.247 5.01048 14.4981L4.40382 14.4981ZM10.8675 14.4981C22.2361 12.1076 42.375 9.56529 46.5936 9.04393L46.5936 10.7267C43.6568 10.9065 31.62 11.7791 21.2611 14.498L10.8675 14.4981Z" fill="#F4C51F"/>
<path d="M-6.64783e-07 15.2085C-6.65785e-07 15.2314 0.00140314 15.2542 0.00365381 15.2772L0.000186255 15.206L-6.64783e-07 15.2085Z" fill="#F4C51F"/>
<path d="M48 35.2898L48 33.0958L48 33.0905L48 25.2855L48 25.2825L48 20.7916C48 20.3994 47.6853 20.0815 47.2968 20.0815L38.9333 20.0815C38.931 20.0815 38.9286 20.0815 38.9262 20.0815L29.4256 20.0815L29.4215 20.0815L0.703311 20.0815C0.314902 20.0815 9.44757e-05 20.3993 9.44586e-05 20.7916L9.38249e-05 35.2898C9.38077e-05 35.682 0.31481 35.9999 0.70331 35.9999L10.6964 35.9999C11.0848 35.9999 11.3996 35.6821 11.3996 35.2898C11.3996 34.8975 11.0849 34.5796 10.6964 34.5796L1.40663 34.5796L1.40663 32.4888C9.4968 32.3949 20.8546 32.6066 30.374 34.0724C31.4729 34.2415 32.4501 34.4129 33.3133 34.5797L13.5091 34.5797C13.1207 34.5797 12.8059 34.8975 12.8059 35.2899C12.8059 35.6821 13.1206 36 13.5091 36L38.9372 36L38.9409 36L47.2968 36C47.6853 35.9999 48 35.6821 48 35.2898ZM33.9798 25.5279C33.9798 25.8158 34.1153 26.0857 34.358 26.2691C34.6804 26.5128 35.3515 27.0201 41.5593 26.5611C43.5786 26.4118 45.5431 26.2061 46.5936 26.0897L46.5936 27.4246C44.0698 27.7675 34.1218 28.913 28.9724 26.4803C28.1431 26.0886 27.9853 25.7924 27.995 25.7089C28.0002 25.6646 28.1813 24.6061 33.4207 22.9636C35.9857 22.1596 38.5567 21.5974 39.0032 21.5018L40.9241 21.5018C40.489 21.6708 40.0403 21.8483 39.5916 22.0303C34.5843 24.0614 34.0849 24.7763 33.9908 25.3853C33.9834 25.4331 33.9798 25.4807 33.9798 25.5279ZM46.5936 21.5017L46.5936 24.6609C45.6226 24.7696 43.6405 24.9804 41.5829 25.1352C38.3696 25.3767 36.7562 25.3502 35.9517 25.2747C37.3879 24.4211 41.003 22.9014 45.0003 21.5018L46.5936 21.5017ZM1.40653 23.9729L1.40653 21.5018L24.219 21.5018C19.0056 22.7672 10.3566 24.3838 1.40653 23.9729ZM1.40663 25.3945C8.83886 25.7273 15.988 24.6849 20.7407 23.7327C25.608 22.7577 28.9104 21.7105 29.5488 21.5017L33.3448 21.5017C33.2343 21.5355 33.1236 21.5696 33.0129 21.6043C30.135 22.5059 26.8049 23.7683 26.5982 25.5431C26.5908 25.6062 26.5872 25.6685 26.5872 25.7303C26.5873 26.521 27.1881 27.2053 28.3765 27.7667C31.0333 29.0218 35.0518 29.5657 40.3203 29.3833C43.0712 29.2881 45.414 29.0165 46.5936 28.8587L46.5936 32.2306C44.408 31.8006 38.2013 30.6181 30.6718 29.521C22.2434 28.2928 10.4298 26.9304 1.40653 27.2977L1.40663 25.3945ZM39.0599 34.5795C38.474 34.3606 35.9716 33.5041 30.6985 32.6856C21.0732 31.1915 9.58961 30.9739 1.40653 31.0684L1.40653 28.7189C17.3502 28.0541 42.521 32.8725 46.5936 33.678L46.5936 34.5796L39.0599 34.5795Z" fill="#F4C51F"/>
</svg>
