<svg width="36" height="36" viewBox="0 0 36 36" fill="none" xmlns="http://www.w3.org/2000/svg">
<path d="M33.6 6.60052C32.2751 6.6019 31.2014 7.67554 31.2001 9.00049V11.4005C31.2001 11.732 31.4687 12.0006 31.7999 12.0006C32.1314 12.0006 32.4001 11.732 32.4001 11.4005V9.00049C32.4001 8.33774 32.9373 7.80051 33.6 7.80051C34.2628 7.80051 34.8 8.33774 34.8 9.00049V17.4004H33.6V15.6005C33.5992 14.938 33.0625 14.4011 32.4001 14.4005H1.19998C0.537506 14.4011 0.000549316 14.938 0 15.6005V20.4005C0.000549316 21.0629 0.537506 21.5999 1.19998 21.6004V34.8005C1.20053 35.463 1.73749 35.9999 2.39996 36.0005H31.2001C31.8625 35.9999 32.3992 35.463 32.4001 34.8005V27.6006H34.8V35.4004C34.8 35.7319 35.0686 36.0005 35.3999 36.0005C35.7314 36.0005 36 35.7319 36 35.4004V9.00049C35.9986 7.67554 34.925 6.6019 33.6 6.60052ZM28.2 34.8005V23.4005C28.2 23.069 27.9314 22.8004 27.6001 22.8004C27.2686 22.8004 27 23.069 27 23.4005V34.8005H24.6V23.4005C24.6 23.069 24.3314 22.8004 23.9999 22.8004C23.6687 22.8004 23.4001 23.069 23.4001 23.4005V34.8005H21.0001V23.4005C21.0001 23.069 20.7315 22.8004 20.4 22.8004C20.0687 22.8004 19.8001 23.069 19.8001 23.4005V34.8005H17.3999V23.4005C17.3999 23.069 17.1313 22.8004 16.8 22.8004C16.4685 22.8004 16.1999 23.069 16.1999 23.4005V34.8005H13.7999V23.4005C13.7999 23.069 13.5313 22.8004 13.2001 22.8004C12.8686 22.8004 12.5999 23.069 12.5999 23.4005V34.8005H10.2V23.4005C10.2 23.069 9.93137 22.8004 9.60013 22.8004C9.26862 22.8004 9 23.069 9 23.4005V34.8005H6.60004V23.4005C6.60004 23.069 6.33142 22.8004 5.99991 22.8004C5.66867 22.8004 5.40005 23.069 5.40005 23.4005V34.8005H2.39996V21.6004H31.2001L31.2003 26.9986L31.2001 27.0005L31.2003 27.0024L31.2009 34.8005H28.2ZM1.19998 20.4005V15.6005H32.4001L32.4003 17.9983L32.4001 18.0005L32.4003 18.0027L32.4009 20.4005H1.19998ZM34.8 26.4004H32.4001V21.6004C33.0625 21.5999 33.5992 21.0629 33.6 20.4005V18.6006H34.8V26.4004Z" fill="#F4C51F"/>
<path d="M21.2426 6.57114C21.394 6.62057 21.5587 6.60767 21.7005 6.53543C21.8425 6.46347 21.9499 6.33795 21.999 6.18661C22.1391 5.7381 22.2069 5.27036 22.2001 4.80042C22.2179 3.95145 21.9814 3.11649 21.5208 2.40292C21.1663 1.86981 20.9842 1.24057 21.0001 0.600616C21.0001 0.269104 20.7315 0.000488281 20.4 0.000488281C20.0687 0.000488281 19.8001 0.269104 19.8001 0.600616C19.7823 1.44958 20.0187 2.28455 20.4791 2.99811C20.8339 3.53122 21.0157 4.16046 21.0001 4.80042C21.0064 5.14374 20.9583 5.48596 20.8578 5.81445C20.8084 5.96579 20.8213 6.13058 20.8935 6.27258C20.9655 6.41458 21.0913 6.52197 21.2426 6.57114Z" fill="#F4C51F"/>
<path d="M20.4 9.60062C20.7315 9.60062 21.0001 9.33173 21.0001 9.00049C20.9993 8.82608 21.01 8.65195 21.032 8.47891C21.0682 8.15427 20.838 7.86011 20.5142 7.81726C20.1901 7.77469 19.8916 7.99881 19.8424 8.32208C19.8136 8.54703 19.7993 8.77362 19.8001 9.00049C19.8001 9.15952 19.8633 9.31223 19.9756 9.42484C20.0882 9.53717 20.2409 9.60062 20.4 9.60062Z" fill="#F4C51F"/>
<path d="M15.6363 4.80042C15.8091 4.80042 15.9736 4.72598 16.0878 4.59607C16.2018 4.46616 16.2543 4.2934 16.232 4.12201C16.2101 3.94897 16.1993 3.77484 16.1999 3.60043C16.1999 3.2692 15.9313 3.00058 15.6 3.00058C15.2685 3.00058 14.9999 3.2692 14.9999 3.60043C14.9994 3.8273 15.0136 4.05389 15.0425 4.27911C15.0818 4.57712 15.3355 4.79987 15.6363 4.80042Z" fill="#F4C51F"/>
<path d="M15.6 12.6004C15.9313 12.6004 16.1999 12.3318 16.1999 12.0006C16.1842 11.3604 16.3661 10.7311 16.7209 10.1983C17.1812 9.48444 17.4177 8.64948 17.3999 7.80051C17.407 7.33084 17.3389 6.86282 17.1985 6.41458C17.0936 6.10229 16.7569 5.93256 16.4435 6.03473C16.1304 6.1369 15.9582 6.47253 16.0576 6.78647C16.1584 7.11469 16.2065 7.45718 16.1999 7.80051C16.2158 8.44046 16.034 9.06998 15.6791 9.60281C15.2185 10.3164 14.9821 11.1513 14.9999 12.0006C14.9999 12.1596 15.0631 12.3123 15.1757 12.4247C15.2883 12.5373 15.4407 12.6004 15.6 12.6004Z" fill="#F4C51F"/>
<path d="M25.2364 4.80042C25.4092 4.80042 25.5737 4.72598 25.6877 4.59607C25.8017 4.46616 25.8544 4.2934 25.8319 4.12201C25.8099 3.94897 25.7992 3.77484 25.8 3.60043C25.8 3.2692 25.5314 3.00058 25.1999 3.00058C24.8687 3.00058 24.6 3.2692 24.6 3.60043C24.5995 3.8273 24.6135 4.05389 24.6426 4.27911C24.6819 4.57712 24.9357 4.79987 25.2364 4.80042Z" fill="#F4C51F"/>
<path d="M25.1999 12.6004C25.5314 12.6004 25.8 12.3318 25.8 12.0006C25.7844 11.3604 25.9662 10.7311 26.321 10.1983C26.7814 9.48444 27.0179 8.64948 27 7.80051C27.0069 7.33084 26.939 6.86282 26.7984 6.41458C26.6938 6.10229 26.3568 5.93256 26.0436 6.03473C25.7305 6.1369 25.558 6.47253 25.6577 6.78647C25.7585 7.11469 25.8066 7.45718 25.8 7.80051C25.8157 8.44046 25.6339 9.06998 25.279 9.60281C24.8187 10.3164 24.5822 11.1513 24.6 12.0006C24.6 12.3318 24.8687 12.6004 25.1999 12.6004Z" fill="#F4C51F"/>
<path d="M11.6425 6.57114C11.7938 6.62057 11.9586 6.60767 12.1006 6.53543C12.2423 6.46347 12.3497 6.33795 12.3989 6.18661C12.539 5.7381 12.6068 5.27036 12.5999 4.80042C12.6178 3.95145 12.3813 3.11649 11.921 2.40292C11.5661 1.86981 11.3843 1.24057 11.4 0.600616C11.4 0.269104 11.1313 0.000488281 10.8001 0.000488281C10.4686 0.000488281 10.2 0.269104 10.2 0.600616C10.1821 1.44958 10.4186 2.28455 10.8792 2.99811C11.2338 3.53122 11.4159 4.16046 11.4 4.80042C11.4066 5.14374 11.3585 5.48596 11.258 5.81445C11.2085 5.96579 11.2212 6.13058 11.2934 6.27258C11.3656 6.41458 11.4911 6.52197 11.6425 6.57114Z" fill="#F4C51F"/>
<path d="M10.8001 9.60062C11.1313 9.60062 11.4 9.33173 11.4 9.00049C11.3991 8.82608 11.4099 8.65195 11.4318 8.47891C11.4684 8.15427 11.2382 7.86011 10.9141 7.81726C10.5903 7.77469 10.2917 7.99881 10.2426 8.32208C10.2134 8.54703 10.1994 8.77362 10.2 9.00049C10.2 9.15952 10.2632 9.31223 10.3758 9.42484C10.4884 9.53717 10.6408 9.60062 10.8001 9.60062Z" fill="#F4C51F"/>
<path d="M6.03616 4.80042C6.2092 4.80042 6.37372 4.72598 6.4877 4.59607C6.60168 4.46616 6.65442 4.2934 6.6319 4.12201C6.60992 3.94897 6.59921 3.77484 6.60004 3.60043C6.60004 3.2692 6.33142 3.00058 5.99991 3.00058C5.66867 3.00058 5.40005 3.2692 5.40005 3.60043C5.39951 3.8273 5.41351 4.05389 5.44235 4.27911C5.4819 4.57712 5.73569 4.79987 6.03616 4.80042Z" fill="#F4C51F"/>
<path d="M5.99991 12.6004C6.33142 12.6004 6.60004 12.3318 6.60004 12.0006C6.58411 11.3604 6.7662 10.7311 7.12079 10.1983C7.58139 9.48444 7.81787 8.64948 7.80002 7.80051C7.80688 7.33084 7.73904 6.86282 7.59842 6.41458C7.49377 6.10229 7.15677 5.93256 6.84366 6.03473C6.53027 6.1369 6.35806 6.47253 6.45749 6.78647C6.55856 7.11469 6.60663 7.45718 6.60004 7.80051C6.61569 8.44046 6.43387 9.06998 6.07901 9.60281C5.61868 10.3164 5.3822 11.1513 5.40005 12.0006C5.40005 12.1596 5.46323 12.3123 5.57584 12.4247C5.68817 12.5373 5.84088 12.6004 5.99991 12.6004Z" fill="#F4C51F"/>
</svg>
