<svg width="35" height="36" viewBox="0 0 35 36" fill="none" xmlns="http://www.w3.org/2000/svg">
<path d="M34.7513 11.5211L17.8183 0.0972683C17.6262 -0.0324579 17.3739 -0.0323876 17.1817 0.0972683L0.248657 11.5211C0.0931405 11.626 0 11.8006 0 11.9875V35.4363C0 35.7476 0.25382 36 0.566975 36H34.433C34.7462 36 35 35.7477 35 35.4363V11.9875C35 11.8006 34.9069 11.626 34.7513 11.5211ZM7.18143 34.8726V28.785H8.46651V31.8288C8.46651 32.1401 8.72033 32.3925 9.03349 32.3925H11.4525C11.7656 32.3925 12.0195 32.1401 12.0195 31.8288V28.785H13.3046V34.8726H7.18143ZM5.97195 14.4301V13.1524H29.0281V14.4301H5.97195ZM9.60046 31.2651V28.785H10.8855V31.2651H9.60046ZM13.3045 27.6576H7.18136V21.5699H8.46644V24.6138C8.46644 24.925 8.72026 25.1775 9.03342 25.1775H11.4525C11.7655 25.1775 12.0194 24.9251 12.0194 24.6138V21.5699H13.3045V27.6576ZM9.60046 24.0501V21.5699H10.8855V24.0501H9.60046ZM20.5615 34.8726H14.4385V28.785H15.7235V31.8288C15.7235 32.1401 15.9774 32.3925 16.2905 32.3925H18.7096C19.0227 32.3925 19.2765 32.1401 19.2765 31.8288V28.785H20.5616L20.5615 34.8726ZM16.8574 31.2651V28.785H18.1425V31.2651H16.8574ZM33.8661 34.8726H28.9525V22.81C28.9525 22.4987 28.6988 22.2463 28.3855 22.2463C28.0724 22.2463 27.8186 22.4986 27.8186 22.81V34.8725H21.6955V28.2213C21.6955 27.91 21.4417 27.6576 21.1285 27.6576H14.4385V21.0063C14.4385 20.695 14.1846 20.4426 13.8715 20.4426H7.18143V15.5574H27.8186V20.405C27.8186 20.7163 28.0723 20.9687 28.3855 20.9687C28.6987 20.9687 28.9525 20.7164 28.9525 20.405V15.5574H29.5951C29.9083 15.5574 30.1621 15.305 30.1621 14.9937V12.5887C30.1621 12.2775 29.9083 12.025 29.5951 12.025H5.40497C5.09189 12.025 4.838 12.2774 4.838 12.5887V14.9938C4.838 15.305 5.09182 15.5575 5.40497 15.5575H6.04755V34.8727H1.13395V12.2862L17.5 1.24491L33.8661 12.2862L33.8661 34.8726Z" fill="#F4C51F"/>
<path d="M19.919 4.81002H15.081C14.768 4.81002 14.5141 5.06237 14.5141 5.37372C14.5141 5.68506 14.7679 5.93741 15.081 5.93741H19.919C20.2322 5.93741 20.486 5.68506 20.486 5.37372C20.486 5.06237 20.2322 4.81002 19.919 4.81002Z" fill="#F4C51F"/>
<path d="M19.919 7.21505H15.081C14.768 7.21505 14.5141 7.4674 14.5141 7.77875C14.5141 8.09009 14.7679 8.34244 15.081 8.34244H19.919C20.2322 8.34244 20.486 8.09009 20.486 7.77875C20.486 7.4674 20.2322 7.21505 19.919 7.21505Z" fill="#F4C51F"/>
<path d="M19.919 9.62002H15.081C14.768 9.62002 14.5141 9.87237 14.5141 10.1837C14.5141 10.4951 14.7679 10.7474 15.081 10.7474H19.919C20.2322 10.7474 20.486 10.4951 20.486 10.1837C20.486 9.87237 20.2322 9.62002 19.919 9.62002Z" fill="#F4C51F"/>
<path d="M11.4525 25.8539H9.03349C8.7204 25.8539 8.46651 26.1062 8.46651 26.4176C8.46651 26.7288 8.72033 26.9813 9.03349 26.9813H11.4525C11.7656 26.9813 12.0195 26.7289 12.0195 26.4176C12.0194 26.1062 11.7656 25.8539 11.4525 25.8539Z" fill="#F4C51F"/>
<path d="M11.4525 33.0688H9.03349C8.7204 33.0688 8.46651 33.3212 8.46651 33.6325C8.46651 33.9438 8.72033 34.1962 9.03349 34.1962H11.4525C11.7656 34.1962 12.0195 33.9439 12.0195 33.6325C12.0194 33.3212 11.7656 33.0688 11.4525 33.0688Z" fill="#F4C51F"/>
<path d="M18.7095 33.0688H16.2904C15.9774 33.0688 15.7235 33.3212 15.7235 33.6325C15.7235 33.9438 15.9773 34.1962 16.2904 34.1962H18.7095C19.0226 34.1962 19.2765 33.9439 19.2765 33.6325C19.2765 33.3212 19.0227 33.0688 18.7095 33.0688Z" fill="#F4C51F"/>
</svg>
