<svg width="42" height="36" viewBox="0 0 42 36" fill="none" xmlns="http://www.w3.org/2000/svg">
<path d="M7.39571 32.6291C7.05594 32.6291 6.78049 32.9012 6.78049 33.2367V35.393C6.78049 35.7285 7.05594 36.0005 7.39571 36.0005C7.73549 36.0005 8.01094 35.7285 8.01094 35.393V33.2367C8.01094 32.9011 7.73549 32.6291 7.39571 32.6291Z" fill="#F4C51F"/>
<path d="M6.87687 27.24L4.93266 25.9411C4.6513 25.7531 4.26871 25.8259 4.07832 26.1039C3.88792 26.3818 3.96175 26.7595 4.24312 26.9475L6.18708 28.2462C6.55859 28.4946 6.7804 28.9073 6.7804 29.3501V30.4682C6.7804 30.8037 7.05586 31.0757 7.39563 31.0757C7.7354 31.0757 8.01086 30.8037 8.01086 30.4682V29.3501C8.01094 28.5036 7.58701 27.7148 6.87687 27.24Z" fill="#F4C51F"/>
<path d="M40.0736 12.5745C39.2731 12.3488 38.4291 12.5058 37.7583 13.0056C37.0905 13.5031 36.6918 14.2837 36.6918 15.0938V16.6175C36.6918 16.715 36.6414 16.7792 36.6114 16.8087C36.5814 16.8383 36.5121 16.888 36.4175 16.8876C36.267 16.8872 36.1446 16.766 36.1446 16.6175V10.7983C36.1446 10.4628 35.8692 10.1908 35.5294 10.1908C35.1897 10.1908 34.9142 10.4628 34.9142 10.7983V16.6175C34.9142 16.7728 34.9388 16.9226 34.9839 17.0635C34.3772 17.169 33.6233 17.336 32.8246 17.5969C33.3496 16.1372 33.5426 14.5711 33.3672 12.9974C33.3102 12.4894 32.9739 12.0594 32.5161 11.8598V5.36934C32.5161 5.36804 32.5163 5.36675 32.5163 5.36545C32.5163 4.71255 33.0541 4.18148 33.7152 4.18148C34.3763 4.18148 34.9142 4.71263 34.9142 5.36545V8.02962C34.9142 8.36515 35.1897 8.63716 35.5294 8.63716C35.8692 8.63716 36.1446 8.36515 36.1446 8.02962V5.36545C36.1446 4.04256 35.0548 2.96641 33.7152 2.96641C33.2705 2.96641 32.8533 3.085 32.4943 3.29197C32.337 2.13853 31.3566 1.21759 30.175 1.17668C29.6515 1.15845 29.1506 1.3011 28.7276 1.58446C28.389 0.66157 27.4924 0.000488281 26.4424 0.000488281C25.793 0.000488281 25.1829 0.249984 24.7241 0.702883C24.2655 1.15586 24.0128 1.75846 24.0128 2.39969V3.58504C23.659 3.38593 23.2499 3.2722 22.8144 3.2722C22.1659 3.2722 21.5558 3.52153 21.0956 3.97508C21.0625 4.00781 21.0308 4.04158 20.9999 4.07585C20.9687 4.04134 20.9368 4.00732 20.9034 3.97427C20.4441 3.52161 19.834 3.2722 19.1856 3.2722C18.7501 3.2722 18.341 3.38593 17.9872 3.58504V2.39969C17.9872 1.75846 17.7345 1.15594 17.2758 0.702883C16.8171 0.249984 16.2069 0.000488281 15.5576 0.000488281C14.5065 0.000488281 13.609 0.663109 13.2712 1.58365C12.8485 1.30078 12.348 1.15789 11.8254 1.1766C10.6433 1.21759 9.66288 2.13853 9.50562 3.29197C9.14666 3.085 8.72945 2.96641 8.28468 2.96641C6.94512 2.96641 5.85526 4.04264 5.85526 5.36545V16.6174C5.85526 16.7659 5.73287 16.8871 5.58235 16.8875C5.5821 16.8875 5.58185 16.8875 5.58153 16.8875C5.48325 16.8875 5.41837 16.8382 5.38843 16.8086C5.3584 16.7791 5.30804 16.7149 5.30804 16.6174V15.0937C5.30804 14.2837 4.90937 13.503 4.24156 13.0055C3.57079 12.5057 2.72694 12.3486 1.92624 12.5744C0.792087 12.8943 0 13.9477 0 15.136V22.9C0 23.6599 0.380376 24.3674 1.01718 24.7925L1.87825 25.3677C1.98391 25.4383 2.10376 25.4721 2.22237 25.4721C2.41974 25.4721 2.61366 25.3785 2.73252 25.2049C2.92291 24.9269 2.84909 24.5493 2.56764 24.3613L1.7064 23.7859C1.40838 23.587 1.23046 23.2557 1.23046 22.8999V15.136C1.23046 14.4873 1.65546 13.9145 2.26404 13.7429C2.69003 13.6229 3.14071 13.7076 3.50041 13.9756C3.86175 14.2447 4.0775 14.6628 4.0775 15.0938V16.6175C4.0775 17.0149 4.2345 17.3884 4.51948 17.6691C4.79354 17.939 5.15439 18.0903 5.53961 18.1007C5.54281 18.1009 5.54593 18.1015 5.54912 18.1017C5.57103 18.103 7.76444 18.2366 9.84876 19.1531C9.86303 19.1593 9.87747 19.1642 9.89191 19.1694C10.3807 20.0424 10.999 20.8573 11.7385 21.5878C11.9888 21.835 12.2499 22.0686 12.5207 22.2886C11.988 23.0757 11.6981 24.0081 11.6981 24.9598V27.7331C11.6981 28.0686 11.9735 28.3407 12.3133 28.3407C12.6531 28.3407 12.9285 28.0686 12.9285 27.7331V24.9598C12.9285 24.2658 13.1351 23.5857 13.515 23.0067C15.2424 24.113 17.257 24.716 19.3075 24.716C19.4483 24.716 19.5893 24.7132 19.7303 24.7075C19.9491 24.6985 20.1676 24.6821 20.3849 24.6595V35.393C20.3849 35.7285 20.6603 36.0005 21.0001 36.0005C21.3398 36.0005 21.6153 35.7285 21.6153 35.393V24.6592C21.8335 24.6817 22.0525 24.6979 22.271 24.7064C22.4118 24.7121 22.5523 24.715 22.693 24.715C24.7423 24.7149 26.7565 24.1115 28.4841 23.0048C28.8647 23.5841 29.0716 24.2649 29.0716 24.9597V27.733C29.0716 28.0685 29.3471 28.3405 29.6869 28.3405C30.0266 28.3405 30.3021 28.0685 30.3021 27.733V24.9597C30.3021 24.0071 30.0117 23.0741 29.4783 22.2865C29.7488 22.0666 30.0098 21.833 30.26 21.5861C30.9991 20.8562 31.6173 20.0421 32.1061 19.17C32.1213 19.1647 32.1365 19.1595 32.1514 19.1529C34.2257 18.2408 36.4082 18.1041 36.4505 18.1015C36.454 18.1014 36.4573 18.1007 36.4606 18.1005C36.8458 18.09 37.2066 17.9388 37.4806 17.6689C37.7656 17.3882 37.9226 17.0147 37.9226 16.6173V15.0937C37.9226 14.6626 38.1383 14.2447 38.4997 13.9754C38.8595 13.7074 39.3102 13.6226 39.736 13.7427C40.3445 13.9143 40.7696 14.4872 40.7696 15.1358V22.8997C40.7696 23.2556 40.5917 23.5867 40.2934 23.7858L35.123 27.2399C34.4131 27.7147 33.9891 28.5034 33.9891 29.3498V35.3928C33.9891 35.7283 34.2646 36.0003 34.6044 36.0003C34.9441 36.0003 35.2196 35.7283 35.2196 35.3928V29.3498C35.2196 28.907 35.4414 28.4944 35.8127 28.2461L40.9826 24.7924C41.6196 24.3671 42 23.6596 42 22.8997V15.1358C41.9997 13.9477 41.2076 12.8943 40.0736 12.5745ZM9.48364 11.8598C9.02583 12.0595 8.6895 12.4895 8.63249 12.9977C8.45711 14.5712 8.64972 16.137 9.17406 17.5965C8.37573 17.3358 7.6222 17.1689 7.01583 17.0635C7.06095 16.9226 7.08556 16.7728 7.08556 16.6175V5.36545C7.08556 4.71255 7.62343 4.18148 8.28452 4.18148C8.9456 4.18148 9.48348 4.71263 9.48348 5.36545C9.48348 5.36675 9.48364 5.36804 9.48364 5.36934V11.8598ZM29.2542 2.72177C29.4904 2.49682 29.8012 2.37952 30.1312 2.39103C30.7678 2.41306 31.2857 2.963 31.2857 3.61696L31.2856 11.6928C30.4831 11.6695 29.6775 11.7405 28.8877 11.8986V3.57402C28.8877 3.57338 28.8876 3.57281 28.8876 3.57216C28.8881 3.24855 29.0182 2.94664 29.2542 2.72177ZM25.2432 12.2087V2.39969C25.2432 2.08305 25.3679 1.78551 25.5941 1.5621C25.8204 1.33861 26.1217 1.21556 26.4423 1.21556C27.1036 1.21556 27.6415 1.74679 27.6415 2.40763L27.6572 12.221C26.948 12.4522 26.2608 12.7555 25.612 13.131C25.5819 13.1484 25.552 13.1666 25.5219 13.1844C25.4424 12.8692 25.3484 12.559 25.2408 12.2545C25.242 12.2393 25.2432 12.2241 25.2432 12.2087ZM21.615 5.67084C21.6151 5.35516 21.7398 5.05779 21.9656 4.83438C22.1926 4.61065 22.4939 4.48736 22.8142 4.48736C23.475 4.48736 24.0127 5.01826 24.0127 5.67084C24.0127 5.67092 24.0127 5.67108 24.0127 5.67116C24.0127 5.67124 24.0127 5.67141 24.0127 5.67149V9.84C23.4311 8.99285 22.7213 8.22776 21.8945 7.57332C21.8073 7.50431 21.7132 7.44793 21.615 7.40216V5.67084ZM17.987 5.67157C17.987 5.67149 17.987 5.67132 17.987 5.67124C17.987 5.67116 17.987 5.671 17.987 5.67092C17.9869 5.01834 18.5246 4.48744 19.1855 4.48744C19.5056 4.48744 19.807 4.61065 20.0332 4.83357C20.2598 5.05779 20.3846 5.35508 20.3846 5.67092V7.40232C20.2865 7.44809 20.1924 7.50439 20.1054 7.57332C19.2786 8.22768 18.5686 8.99245 17.987 9.8392V5.67157ZM14.3582 2.39969C14.3582 1.74671 14.8962 1.21556 15.5574 1.21556C15.8781 1.21556 16.1794 1.33869 16.4056 1.5621C16.632 1.7856 16.7566 2.08305 16.7566 2.39969V12.2086C16.7566 12.223 16.7577 12.2372 16.7588 12.2514C16.6506 12.5569 16.5562 12.8681 16.4763 13.1843C16.4464 13.1666 16.4165 13.1486 16.3864 13.1312C15.7377 12.7563 15.051 12.4531 14.3425 12.222L14.3582 2.39969ZM11.8689 2.39103C12.1979 2.37969 12.5093 2.49682 12.7454 2.72177C12.9814 2.94656 13.1114 3.24855 13.112 3.57216C13.112 3.57281 13.1119 3.57338 13.1119 3.57402V11.8993C12.3218 11.7409 11.5162 11.6697 10.714 11.6928L10.7139 3.61704C10.7139 2.96292 11.2318 2.41298 11.8689 2.39103ZM12.6084 20.7288C10.5476 18.693 9.54426 15.9236 9.85548 13.1312C9.86574 13.0399 9.94022 12.9662 10.0324 12.9562C11.9945 12.7425 14.0303 13.1773 15.7654 14.1803C15.924 14.2718 16.0805 14.3705 16.2351 14.472C16.18 14.9139 16.1508 15.3624 16.1508 15.816C16.1508 18.7658 17.3647 21.5412 19.4565 23.4994C16.9259 23.5401 14.4407 22.5381 12.6084 20.7288ZM21.6151 22.694V16.7023C21.6151 16.3668 21.3397 16.0948 20.9999 16.0948C20.6601 16.0948 20.3847 16.3668 20.3847 16.7023V22.694C18.4857 20.9598 17.3813 18.4683 17.3813 15.8159C17.3813 12.9372 18.6547 10.2785 20.8748 8.52141C20.9111 8.49273 20.9555 8.47839 20.9998 8.47839C21.0442 8.47839 21.0887 8.49273 21.1249 8.52141C23.3439 10.278 24.6166 12.9367 24.6166 15.8159C24.6166 18.4689 23.5131 20.9602 21.6151 22.694ZM29.3897 20.7271C27.5571 22.5367 25.0736 23.5399 22.5441 23.4987C24.6342 21.541 25.8471 18.7659 25.8471 15.816C25.8471 15.362 25.818 14.913 25.7628 14.4707C25.9172 14.3692 26.0745 14.2716 26.2336 14.1798C27.9664 13.1771 30.0025 12.7426 31.9671 12.9562C32.0594 12.9663 32.1339 13.0399 32.1441 13.1308C32.4552 15.9224 31.4514 18.6912 29.3897 20.7271Z" fill="#F4C51F"/>
<path d="M21.007 13.9147H20.9993C20.66 13.9126 20.3865 14.1836 20.3847 14.5191C20.383 14.8546 20.6607 15.1281 21.0005 15.1299C21.0016 15.1299 21.0027 15.1299 21.0039 15.1299C21.3421 15.1299 21.6172 14.86 21.619 14.5256C21.6207 14.1899 21.3467 13.9165 21.007 13.9147Z" fill="#F4C51F"/>
<path d="M30.7648 13.7073H30.7571C30.416 13.7092 30.1443 13.9761 30.1425 14.3116C30.1408 14.6472 30.4185 14.9206 30.7583 14.9224C30.7594 14.9224 30.7605 14.9224 30.7616 14.9224C31.0999 14.9224 31.375 14.6525 31.3768 14.3181C31.3784 13.9824 31.1045 13.709 30.7648 13.7073Z" fill="#F4C51F"/>
<path d="M11.249 13.7073H11.2414C11.2402 13.7073 11.2392 13.7073 11.238 13.7073C10.8998 13.7073 10.6285 13.9773 10.6267 14.3116C10.6249 14.6472 10.9027 14.9206 11.2425 14.9224C11.2436 14.9224 11.2447 14.9224 11.2458 14.9224C11.584 14.9224 11.8592 14.6525 11.861 14.3181C11.8628 13.9824 11.5888 13.709 11.249 13.7073Z" fill="#F4C51F"/>
</svg>
